<svg width="32" height="32" viewBox="0 0 32 32" fill="none" xmlns="http://www.w3.org/2000/svg">
<g clip-path="url(#clip0_570_128)">
<path d="M24 24V26H26.4592C25.9003 26.6306 25.2137 27.135 24.4448 27.4798C23.676 27.8247 22.8426 28.002 22 28C20.4093 27.9983 18.8841 27.3656 17.7593 26.2407C16.6345 25.1159 16.0018 23.5908 16 22H14C13.9968 23.6267 14.4905 25.2156 15.4151 26.5539C16.3397 27.8923 17.6511 28.9163 19.1736 29.4889C20.6962 30.0616 22.3574 30.1554 23.9348 29.758C25.5122 29.3606 26.9305 28.4908 28 27.2651V30H30V24H24Z" fill="white"/>
<path d="M22 14C20.8634 14.0059 19.741 14.2526 18.7067 14.7241C17.6725 15.1955 16.75 15.8808 16 16.7349V14H14V20H20V18H17.5408C18.0997 17.3694 18.7864 16.865 19.5552 16.5202C20.324 16.1753 21.1574 15.998 22 16C23.5908 16.0017 25.1159 16.6344 26.2407 17.7593C27.3656 18.8841 27.9983 20.4092 28 22H30C29.9976 19.879 29.1539 17.8456 27.6542 16.3458C26.1544 14.8461 24.121 14.0024 22 14Z" fill="white"/>
<path d="M12 28H6V24H8V22H6V17H8V15H6V10H8V8H6V4H24V12H26V4C26 3.46957 25.7893 2.96086 25.4142 2.58579C25.0391 2.21071 24.5304 2 24 2H6C5.46957 2 4.96086 2.21071 4.58579 2.58579C4.21071 2.96086 4 3.46957 4 4V8H2V10H4V15H2V17H4V22H2V24H4V28C4 28.5304 4.21071 29.0391 4.58579 29.4142C4.96086 29.7893 5.46957 30 6 30H12V28Z" fill="white"/>
</g>
<defs>
<clipPath id="clip0_570_128">
<rect width="32" height="32" fill="white"/>
</clipPath>
</defs>
</svg>
