<svg width="67" height="59" viewBox="0 0 67 59" fill="none" xmlns="http://www.w3.org/2000/svg">
<path d="M45.2041 18.9466C44.1137 17.9865 42.3463 17.9865 41.2558 18.9466L21.5159 36.3297C20.4257 37.2897 20.4257 38.8463 21.5159 39.8063C22.6061 40.7663 24.3737 40.7663 25.4639 39.8063L45.2041 22.4232C46.2942 21.4632 46.2942 19.9066 45.2041 18.9466Z" fill="#F27400"/>
<path fill-rule="evenodd" clip-rule="evenodd" d="M8.375 14.75C8.375 10.6769 12.1246 7.375 16.75 7.375H50.25C54.8755 7.375 58.625 10.6769 58.625 14.75V44.25C58.625 48.3232 54.8755 51.625 50.25 51.625H16.75C12.1246 51.625 8.375 48.3232 8.375 44.25V14.75ZM16.75 12.2917H50.25C51.7918 12.2917 53.0417 13.3923 53.0417 14.75V44.25C53.0417 45.6077 51.7918 46.7083 50.25 46.7083H16.75C15.2082 46.7083 13.9583 45.6077 13.9583 44.25V14.75C13.9583 13.3923 15.2082 12.2917 16.75 12.2917Z" fill="#F27400"/>
</svg>
