<?xml version="1.0" ?><svg data-name="Layer 1" id="Layer_1" viewBox="0 0 64 64" xmlns="http://www.w3.org/2000/svg"><path d="M54,59h-2.67l3.64-12.73c.09-.3,.03-.63-.16-.88-.19-.25-.49-.4-.8-.4h-18.47c-2.05-1.93-4.7-3-7.53-3h-2v-.63l.97-.42c1.82-.78,3-2.56,3.03-4.54l1.4-.28c.93-.19,1.61-1.01,1.61-1.96v-.18c1.65,0,3-1.35,3-3s-1.35-3-3-3c-.14,0-.28,.01-.42,.03-1.3-4.63-5.55-8.03-10.58-8.03s-9.28,3.41-10.58,8.03c-.14-.02-.28-.03-.42-.03-1.65,0-3,1.35-3,3s1.35,3,3,3c0,1.1,.9,2,2,2h1v.36c0,2,1.19,3.81,3.03,4.6l.97,.42v.63h-2c-6.07,0-11,4.93-11,11v6h-1v2H54v-2Zm-21-29c.55,0,1,.45,1,1s-.45,1-1,1v-1c0-.33-.02-.66-.05-.99,.02,0,.03,0,.05,0Zm-22,1v1c-.55,0-1-.45-1-1s.45-1,1-1c.02,0,.03,0,.05,0-.03,.33-.05,.66-.05,.99Zm3,0v3h-1v-3c0-4.96,4.04-9,9-9s9,4.04,9,9v3.18l-1,.2v-3.38c0-3.86-3.14-7-7-7h-2c-3.86,0-7,3.14-7,7Zm11.99-3.98c-2.33,.1-3.57,1.23-4.67,2.24-1.05,.97-1.88,1.74-3.66,1.74-.61,0-1.14-.09-1.63-.28,.15-2.62,2.31-4.72,4.97-4.72h2c1.13,0,2.16,.39,2.99,1.02Zm-8.18,12.1c-1.1-.47-1.82-1.56-1.82-2.76v-3.56c.52,.13,1.07,.2,1.66,.2,2.56,0,3.87-1.2,5.02-2.27,1.05-.97,1.88-1.73,3.65-1.73,.49,0,.91,.08,1.32,.2,.22,.56,.35,1.16,.35,1.8v3.78l-6.2,1.24,.39,1.96,5.77-1.15c-.16,1.01-.82,1.88-1.78,2.29h0s-3,1.29-3,1.29c-.75,.32-1.61,.32-2.36,0l-3-1.29Zm6.18,3.11v.77c0,1.1-.9,2-2,2s-2-.9-2-2v-.77h.03c.62,.28,1.3,.42,1.97,.42s1.34-.13,1.97-.4h.03Zm-4,16.76h-2v-2h1c.55,0,1,.45,1,1v1Zm2,0v-1c0-1.65-1.35-3-3-3h-6v-2.59l1.71-1.71-1.41-1.41-2,2c-.19,.19-.29,.44-.29,.71v4c0,.55,.45,1,1,1h4v2H7v-6c0-4.96,4.04-9,9-9h2.13c.44,1.72,2.01,3,3.87,3s3.43-1.28,3.87-3h2.13c1.46,0,2.85,.35,4.11,1h-.11c-.45,0-.84,.3-.96,.73l-3.79,13.27h-5.25Zm7.33,0l3.43-12h19.92l-3.43,12H29.33Z"/><path d="M41,52v2c.55,0,1-.45,1-1s-.45-1-1-1Z"/><path d="M36.29,12.16c.27,.27,.66,.36,1.02,.24l3.07-1.02c.36-.12,.75-.03,1.02,.24l10.98,10.98c.27,.27,.36,.66,.24,1.02l-1.02,3.07c-.12,.36-.03,.76,.24,1.02l4.24,4.24c.19,.19,.44,.29,.71,.29,.04,0,.08,0,.12,0,.31-.04,.58-.21,.74-.48l2.64-4.39c1.18-1.97,.87-4.48-.75-6.11L42.74,4.46c-1.62-1.62-4.14-1.93-6.11-.75l-4.39,2.64c-.26,.16-.44,.43-.48,.74-.04,.31,.07,.61,.29,.83l4.24,4.24Zm1.37-6.73c1.18-.71,2.69-.52,3.67,.45l16.8,16.8c.98,.98,1.16,2.48,.45,3.66l-1.98,3.29-2.9-2.9,.83-2.48c.36-1.08,.08-2.26-.73-3.07l-10.98-10.98c-.81-.81-1.99-1.09-3.07-.73l-2.48,.83-2.9-2.9,3.29-1.98Z"/><path d="M33.46,10.74c-.57,.57-.88,1.32-.88,2.12s.31,1.55,.88,2.12l1.41-1.42c-.19-.19-.29-.44-.29-.71s.1-.52,.29-.71l-1.41-1.42Z"/><path d="M31.34,17.11l1.41-1.41c-1.56-1.56-1.56-4.1,0-5.66l-1.41-1.41c-2.34,2.34-2.34,6.15,0,8.49Z"/><path d="M30.63,17.81c-2.73-2.73-2.73-7.17,0-9.9l-1.41-1.41c-3.51,3.51-3.51,9.22,0,12.73l1.41-1.41Z"/><path d="M51.84,29.13c-.39,.39-1.03,.39-1.42,0l-1.41,1.42c.58,.58,1.35,.88,2.12,.88s1.54-.29,2.12-.88l-1.41-1.42Z"/><path d="M46.89,32.66c1.17,1.17,2.71,1.75,4.24,1.75s3.07-.58,4.24-1.75l-1.41-1.41c-1.56,1.56-4.1,1.56-5.66,0l-1.41,1.41Z"/><path d="M44.77,34.78c1.75,1.75,4.06,2.63,6.36,2.63s4.61-.88,6.36-2.63l-1.41-1.41c-2.73,2.73-7.17,2.73-9.9,0l-1.41,1.41Z"/></svg>