<svg width="64" height="64" viewBox="0 0 64 64" fill="none" xmlns="http://www.w3.org/2000/svg">
<path d="M54 59H51.33L54.97 46.27C55.06 45.97 55 45.64 54.81 45.39C54.62 45.14 54.32 44.99 54.01 44.99H35.54C33.49 43.06 30.84 41.99 28.01 41.99H26.01V41.36L26.98 40.94C28.8 40.16 29.98 38.38 30.01 36.4L31.41 36.12C32.34 35.93 33.02 35.11 33.02 34.16V33.98C34.67 33.98 36.02 32.63 36.02 30.98C36.02 29.33 34.67 27.98 33.02 27.98C32.88 27.98 32.74 27.99 32.6 28.01C31.3 23.38 27.05 19.98 22.02 19.98C16.99 19.98 12.74 23.39 11.44 28.01C11.3 27.99 11.16 27.98 11.02 27.98C9.37002 27.98 8.02002 29.33 8.02002 30.98C8.02002 32.63 9.37002 33.98 11.02 33.98C11.02 35.08 11.92 35.98 13.02 35.98H14.02V36.34C14.02 38.34 15.21 40.15 17.05 40.94L18.02 41.36V41.99H16.02C9.95002 41.99 5.02002 46.92 5.02002 52.99V58.99H4.02002V60.99H54V58.99V59ZM33 30C33.55 30 34 30.45 34 31C34 31.55 33.55 32 33 32V31C33 30.67 32.98 30.34 32.95 30.01C32.97 30.01 32.98 30.01 33 30.01V30ZM11 31V32C10.45 32 10 31.55 10 31C10 30.45 10.45 30 11 30C11.02 30 11.03 30 11.05 30C11.02 30.33 11 30.66 11 30.99V31ZM14 31V34H13V31C13 26.04 17.04 22 22 22C26.96 22 31 26.04 31 31V34.18L30 34.38V31C30 27.14 26.86 24 23 24H21C17.14 24 14 27.14 14 31V31ZM25.99 27.02C23.66 27.12 22.42 28.25 21.32 29.26C20.27 30.23 19.44 31 17.66 31C17.05 31 16.52 30.91 16.03 30.72C16.18 28.1 18.34 26 21 26H23C24.13 26 25.16 26.39 25.99 27.02V27.02ZM17.81 39.12C16.71 38.65 15.99 37.56 15.99 36.36V32.8C16.51 32.93 17.06 33 17.65 33C20.21 33 21.52 31.8 22.67 30.73C23.72 29.76 24.55 29 26.32 29C26.81 29 27.23 29.08 27.64 29.2C27.86 29.76 27.99 30.36 27.99 31V34.78L21.79 36.02L22.18 37.98L27.95 36.83C27.79 37.84 27.13 38.71 26.17 39.12L23.17 40.41C22.42 40.73 21.56 40.73 20.81 40.41L17.81 39.12V39.12ZM23.99 42.23V43C23.99 44.1 23.09 45 21.99 45C20.89 45 19.99 44.1 19.99 43V42.23H20.02C20.64 42.51 21.32 42.65 21.99 42.65C22.66 42.65 23.33 42.52 23.96 42.25H23.99V42.23ZM19.99 58.99H17.99V56.99H18.99C19.54 56.99 19.99 57.44 19.99 57.99V58.99ZM21.99 58.99V57.99C21.99 56.34 20.64 54.99 18.99 54.99H12.99V52.4L14.7 50.69L13.29 49.28L11.29 51.28C11.1 51.47 11 51.72 11 51.99V55.99C11 56.54 11.45 56.99 12 56.99H16V58.99H7.00002V52.99C7.00002 48.03 11.04 43.99 16 43.99H18.13C18.57 45.71 20.14 46.99 22 46.99C23.86 46.99 25.43 45.71 25.87 43.99H28C29.46 43.99 30.85 44.34 32.11 44.99H32C31.55 44.99 31.16 45.29 31.04 45.72L27.25 58.99H22H21.99ZM29.32 58.99L32.75 46.99H52.67L49.24 58.99H29.33H29.32Z" fill="#F27400"/>
<path d="M41 52V54C41.55 54 42 53.55 42 53C42 52.45 41.55 52 41 52Z" fill="#F27400"/>
<path d="M36.2901 12.16C36.5601 12.43 36.9501 12.52 37.3101 12.4L40.3801 11.38C40.7401 11.26 41.1301 11.35 41.4001 11.62L52.3801 22.6C52.6501 22.87 52.74 23.26 52.62 23.62L51.6 26.69C51.48 27.05 51.57 27.45 51.84 27.71L56.0801 31.95C56.2701 32.14 56.5201 32.24 56.7901 32.24C56.8301 32.24 56.87 32.24 56.91 32.24C57.22 32.2 57.4901 32.03 57.6501 31.76L60.2901 27.37C61.4701 25.4 61.1601 22.89 59.5401 21.26L42.7401 4.46003C41.1201 2.84003 38.6001 2.53003 36.6301 3.71003L32.2401 6.35003C31.9801 6.51003 31.8001 6.78003 31.7601 7.09003C31.7201 7.40003 31.83 7.70003 32.05 7.92003L36.2901 12.16V12.16ZM37.6601 5.43003C38.8401 4.72003 40.3501 4.91003 41.3301 5.88003L58.1301 22.68C59.1101 23.66 59.2901 25.16 58.5801 26.34L56.6 29.63L53.7001 26.73L54.53 24.25C54.89 23.17 54.61 21.99 53.8 21.18L42.8201 10.2C42.0101 9.39003 40.8301 9.11003 39.7501 9.47003L37.2701 10.3L34.37 7.40003L37.6601 5.42003V5.43003Z" fill="#F27400"/>
<path d="M33.4601 10.74C32.8901 11.31 32.5801 12.06 32.5801 12.86C32.5801 13.66 32.8901 14.41 33.4601 14.98L34.8701 13.56C34.6801 13.37 34.5801 13.12 34.5801 12.85C34.5801 12.58 34.6801 12.33 34.8701 12.14L33.4601 10.72V10.74Z" fill="#F27400"/>
<path d="M31.34 17.11L32.75 15.7C31.19 14.14 31.19 11.6 32.75 10.04L31.34 8.63C29 10.97 29 14.78 31.34 17.12V17.11Z" fill="#F27400"/>
<path d="M30.6299 17.81C27.8999 15.08 27.8999 10.64 30.6299 7.91L29.2199 6.5C25.7099 10.01 25.7099 15.72 29.2199 19.23L30.6299 17.82V17.81Z" fill="#F27400"/>
<path d="M51.8398 29.13C51.4498 29.52 50.8098 29.52 50.4198 29.13L49.0098 30.55C49.5898 31.13 50.3598 31.43 51.1298 31.43C51.8998 31.43 52.6698 31.14 53.2498 30.55L51.8398 29.13V29.13Z" fill="#F27400"/>
<path d="M46.8901 32.66C48.0601 33.83 49.6001 34.41 51.1301 34.41C52.6601 34.41 54.2001 33.83 55.3701 32.66L53.9601 31.25C52.4001 32.81 49.8601 32.81 48.3001 31.25L46.8901 32.66V32.66Z" fill="#F27400"/>
<path d="M44.77 34.78C46.52 36.53 48.83 37.41 51.13 37.41C53.43 37.41 55.74 36.53 57.49 34.78L56.08 33.37C53.35 36.1 48.91 36.1 46.18 33.37L44.77 34.78V34.78Z" fill="#F27400"/>
</svg>
