<svg width="54" height="50" viewBox="0 0 54 50" fill="none" xmlns="http://www.w3.org/2000/svg">
<path d="M41.7352 49.9999H12.8243C10.1027 49.9999 7.88921 47.9504 7.88921 45.432L3.79417 27.6301C2.24687 26.9198 1.23065 25.4708 1.23065 23.853C1.23065 21.4885 3.30768 19.567 5.85948 19.567H48.1406C50.6924 19.567 52.7694 21.4885 52.7694 23.853C52.7694 25.2364 52.0482 26.5031 50.8424 27.3006L46.6365 45.7215C46.6703 47.9504 44.4568 49.9999 41.7352 49.9999ZM5.85948 22.3777C4.982 22.3777 4.26669 23.0401 4.26669 23.8526C4.26669 24.4932 4.76669 25.0604 5.48426 25.2289C6.04371 25.3607 6.47254 25.7778 6.59101 26.3013L10.8915 45.143C10.9252 46.4018 11.777 47.1888 12.8243 47.1888H41.7352C42.7825 47.1888 43.6347 46.4018 43.6347 45.432L48.0086 26.1257C48.1036 25.7011 48.4059 25.3424 48.823 25.1522C49.3843 24.8998 49.7343 24.3981 49.7343 23.853C49.7343 23.0405 49.0189 22.3782 48.141 22.3782H5.85948V22.3777Z" fill="#F27400"/>
<path d="M16.7221 41.7588C16.7221 42.3027 16.2415 42.7477 15.6541 42.7477H15.3599C14.7726 42.7477 14.2919 42.3027 14.2919 41.7588V30.1835C14.2919 29.6396 14.7726 29.1946 15.3599 29.1946H15.6541C16.2415 29.1946 16.7221 29.6396 16.7221 30.1835V41.7588Z" fill="#F27400"/>
<path d="M24.5419 41.7588C24.5419 42.3027 24.0613 42.7477 23.4739 42.7477H23.1797C22.5923 42.7477 22.1113 42.3027 22.1113 41.7588V30.1835C22.1113 29.6396 22.5919 29.1946 23.1797 29.1946H23.4739C24.0613 29.1946 24.5419 29.6396 24.5419 30.1835V41.7588Z" fill="#F27400"/>
<path d="M32.3622 41.7588C32.3622 42.3027 31.8816 42.7477 31.2942 42.7477H30.9996C30.4122 42.7477 29.9316 42.3027 29.9316 41.7588V30.1835C29.9316 29.6396 30.4122 29.1946 30.9996 29.1946H31.2942C31.8816 29.1946 32.3622 29.6396 32.3622 30.1835V41.7588Z" fill="#F27400"/>
<path d="M40.1824 41.7588C40.1824 42.3027 39.7018 42.7477 39.1144 42.7477H38.8198C38.2324 42.7477 37.7513 42.3027 37.7513 41.7588V30.1835C37.7513 29.6396 38.2324 29.1946 38.8198 29.1946H39.114C39.7013 29.1946 40.182 29.6396 40.182 30.1835V41.7588H40.1824Z" fill="#F27400"/>
<path d="M12.6248 14.5429C13.6383 8.00759 19.6924 2.98006 27.0302 2.98006C34.3685 2.98006 40.423 8.00801 41.4365 14.5429C41.5842 16.7743 44.6888 16.4173 44.6888 14.5429C43.6554 6.35636 36.15 0 27.0306 0C17.9117 0 10.4059 6.35636 9.37299 14.5429C9.37254 16.8639 12.6644 16.9532 12.6248 14.5429Z" fill="#F27400"/>
</svg>
