<svg width="29" height="32" viewBox="0 0 26 26" fill="none" xmlns="http://www.w3.org/2000/svg">
<g clip-path="url(#clip0_544_35)">
<path d="M25.366 24.89C25.366 24.837 25.366 24.837 25.366 24.89V5.878C25.366 5.56 25.154 5.348 24.836 5.348H20.494C20.388 2.383 17.952 0 14.987 0C14.034 0 13.186 0.212 12.445 0.635C11.703 0.212 10.803 0 9.903 0C6.937 0 4.501 2.383 4.395 5.349H0.53C0.212 5.349 0 5.56 0 5.878V24.837C0 25.155 0.212 25.367 0.53 25.367H19.224H24.89C24.943 25.367 24.996 25.367 25.049 25.314H25.102C25.155 25.314 25.208 25.261 25.208 25.261C25.208 25.261 25.208 25.261 25.261 25.261C25.314 25.208 25.314 25.155 25.367 25.155V25.102C25.366 24.943 25.366 24.89 25.366 24.89ZM24.307 23.248L22.506 20.918V6.355H24.307V23.248ZM19.7 6.355H21.448V20.918L19.7 23.248V6.355ZM14.987 1.006C17.37 1.006 19.329 2.912 19.435 5.296H19.223H15.41C15.357 3.707 14.616 2.277 13.504 1.271C13.928 1.112 14.404 1.006 14.987 1.006ZM12.392 1.801C13.504 2.595 14.245 3.866 14.298 5.296H10.538C10.538 3.866 11.28 2.595 12.392 1.801ZM9.85 1.006C10.38 1.006 10.909 1.112 11.386 1.271C10.274 2.277 9.533 3.707 9.48 5.296H5.402C5.455 2.913 7.414 1.006 9.85 1.006ZM1.006 6.355H4.289V8.844C4.289 9.162 4.501 9.374 4.819 9.374C5.137 9.374 5.349 9.162 5.349 8.844V6.355H14.246V8.844C14.246 9.162 14.458 9.374 14.776 9.374C15.094 9.374 15.306 9.162 15.306 8.844V6.355H18.589V24.307H1.006V6.355ZM20.229 24.307L21.977 21.977L23.725 24.307H20.229Z" fill="white"/>
</g>
<defs>
<clipPath id="clip0_544_35">
<rect width="25.366" height="25.366" fill="white"/>
</clipPath>
</defs>
</svg>
