<svg width="39" height="35" viewBox="0 0 37 39" fill="none" xmlns="http://www.w3.org/2000/svg">
<g clip-path="url(#clip0_580_34)">
<path d="M37 38.2682C37 38.1867 37 38.1867 37 38.2682V9.03737C37 8.54845 36.6908 8.2225 36.2269 8.2225H29.8935C29.7389 3.66384 26.1856 0 21.8607 0C20.4706 0 19.2337 0.325948 18.1528 0.976307C17.0705 0.325948 15.7577 0 14.445 0C10.1186 0 6.56536 3.66384 6.41075 8.22404H0.773082C0.309233 8.22404 0 8.54845 0 9.03737V38.1867C0 38.6756 0.309233 39.0015 0.773082 39.0015H28.041H36.3057C36.383 39.0015 36.4603 39.0015 36.5376 38.9201H36.6149C36.6922 38.9201 36.7695 38.8386 36.7695 38.8386C36.7695 38.8386 36.7695 38.8386 36.8468 38.8386C36.9242 38.7571 36.9242 38.6756 37.0015 38.6756V38.5941C37 38.3496 37 38.2682 37 38.2682ZM35.4553 35.7436L32.8283 32.1612V9.77076H35.4553V35.7436ZM28.7353 9.77076H31.285V32.1612L28.7353 35.7436V9.77076ZM21.8607 1.54672C25.3367 1.54672 28.1942 4.47717 28.3488 8.14255H28.0395H22.4777C22.4004 5.69948 21.3196 3.50087 19.6975 1.95415C20.316 1.70969 21.0103 1.54672 21.8607 1.54672ZM18.0755 2.76902C19.6975 3.98979 20.7784 5.94394 20.8557 8.14255H15.3712C15.3712 5.94394 16.4535 3.98979 18.0755 2.76902ZM14.3677 1.54672C15.1407 1.54672 15.9124 1.70969 16.6081 1.95415C14.9861 3.50087 13.9053 5.69948 13.828 8.14255H7.8796C7.95691 4.47871 10.8144 1.54672 14.3677 1.54672ZM1.4674 9.77076H6.25613V13.5976C6.25613 14.0865 6.56536 14.4124 7.02921 14.4124C7.49306 14.4124 7.80229 14.0865 7.80229 13.5976V9.77076H20.7799V13.5976C20.7799 14.0865 21.0891 14.4124 21.5529 14.4124C22.0168 14.4124 22.326 14.0865 22.326 13.5976V9.77076H27.1148V37.3718H1.4674V9.77076ZM29.5069 37.3718L32.0567 33.7894L34.6064 37.3718H29.5069V37.3718Z" fill="black"/>
</g>
<defs>
<clipPath id="clip0_580_34">
<rect width="37" height="39" fill="white"/>
</clipPath>
</defs>
</svg>
