<svg width="34" height="30" viewBox="0 0 34 30" fill="none" xmlns="http://www.w3.org/2000/svg">
<g clip-path="url(#clip0_568_74)">
<path d="M29.9676 10.0906L33.4947 6.07941C33.7299 5.82005 33.7886 5.49157 33.7102 5.18035C33.6123 4.86914 33.3575 4.60978 33.0244 4.48873L21.6201 0.339195C21.1302 0.16629 20.562 0.287336 20.2485 0.667679L16.9761 4.36769L13.7037 0.650412C13.3705 0.27001 12.8023 0.149024 12.3124 0.339195L0.90811 4.66164C0.574967 4.78268 0.320234 5.05931 0.222254 5.37052C0.124275 5.68174 0.222254 6.02755 0.457418 6.26958L3.98454 10.0906L0.222254 14.6378C0.00672659 14.8972 -0.0520476 15.243 0.0459318 15.5542C0.143911 15.8654 0.418213 16.1075 0.770926 16.2285L4.20007 17.3523V24.6659C4.20007 25.0982 4.49401 25.4785 4.9447 25.6342L16.6038 29.68C16.741 29.7318 16.8977 29.7492 17.0349 29.7492C17.1721 29.7492 17.3288 29.7319 17.466 29.68L29.1251 25.6342C29.5758 25.4786 29.8697 25.0982 29.8697 24.6659V17.3177L33.2205 16.2285C33.5732 16.1075 33.8279 15.8654 33.9455 15.5542C34.063 15.243 33.9847 14.8972 33.7691 14.6378L29.9676 10.0906ZM21.5417 2.55231L30.6926 5.87191L27.9884 8.93222L18.7004 5.76819L21.5417 2.55231ZM17.0153 12.9434L8.5306 10.2635L16.7213 7.32428L25.4215 10.2808L17.0153 12.9434ZM12.3908 2.56957L15.1145 5.66441L5.944 8.94949L3.25948 6.04482L12.3908 2.56957ZM5.66969 11.5603L15.1145 14.5514L12.3516 17.8019L3.02438 14.7589L5.66969 11.5603ZM27.4986 23.957L17.0152 27.6052L6.53187 23.957V18.1131L12.3712 20.015C12.5084 20.0496 12.6455 20.0842 12.7827 20.0842C13.1354 20.0842 13.4881 19.9286 13.7233 19.6692L16.9761 15.8309L20.2288 19.6692C20.464 19.9286 20.8167 20.0842 21.1694 20.0842C21.3066 20.0842 21.4437 20.0669 21.5809 20.015L27.4986 18.0958V23.957V23.957ZM21.5809 17.8019L18.8376 14.586L28.2824 11.5775L30.9082 14.7588L21.5809 17.8019Z" fill="white"/>
</g>
<defs>
<clipPath id="clip0_568_74">
<rect width="34" height="30" fill="white"/>
</clipPath>
</defs>
</svg>
