<svg width="43" height="45" viewBox="0 0 43 45" fill="none" xmlns="http://www.w3.org/2000/svg">
<g clip-path="url(#clip0_710_82)">
<path d="M42.1712 10.3699L21.7636 2.37284C21.5621 2.29434 21.3388 2.29434 21.1372 2.37284L0.587091 10.4257C0.226314 10.5356 -0.209909 11.1317 0.112795 11.7417V34.3222C0.112795 34.7212 0.354451 35.0755 0.71479 35.2061L20.9368 42.5103C21.0567 42.5825 21.1493 42.6459 21.3612 42.6753C21.6583 42.7165 21.8463 42.6293 21.8477 42.6288L42.3978 35.2061C42.7581 35.0755 42.9999 34.7212 42.9999 34.3222V11.3014C43.0074 10.8533 42.5053 10.4938 42.1712 10.3699ZM39.4527 11.3014L21.504 18.3353L16.1176 16.2249L33.2128 8.85607L39.4527 11.3014ZM30.7547 7.89275L12.7905 15.636L12.3481 20.133L9.00364 18.7232V14.5494L27.6358 6.67041L30.7547 7.89275ZM21.4504 4.24661L25.1611 5.70069L7.89216 13.0019L3.50088 11.2807L21.4504 4.24661ZM1.89987 12.6915L7.21674 14.7752V19.9851L13.8829 22.7958L14.3951 17.5877L20.663 20.0441V40.4328L1.89987 33.6557V12.6915V12.6915ZM41.213 33.6556L22.4499 40.4327V20.0025L41.213 12.65V33.6556Z" fill="white"/>
</g>
<defs>
<clipPath id="clip0_710_82">
<rect width="43" height="45" fill="white"/>
</clipPath>
</defs>
</svg>
