<svg width="35" height="20" viewBox="0 0 42 21" fill="none" xmlns="http://www.w3.org/2000/svg">
<path d="M38.8463 3.93164C38.674 3.67383 38.391 3.51914 38.0957 3.51914H32.374V0.966797C32.374 0.438281 31.9557 0 31.4512 0H10.7178C10.2133 0 9.79492 0.438281 9.79492 0.966797V16.5902C9.79492 17.1188 10.2133 17.557 10.7178 17.557H13.3264C13.8062 19.3102 15.3566 20.6121 17.1777 20.6121C18.9988 20.6121 20.5492 19.323 21.0291 17.557H31.2543C31.7342 19.3102 33.2846 20.6121 35.1057 20.6121C36.9268 20.6121 38.4772 19.323 38.957 17.557H40.8643C41.3688 17.557 41.7871 17.1188 41.7871 16.5902V8.63672C41.7871 8.43047 41.7256 8.23711 41.6148 8.08242L38.8463 3.93164ZM39.9537 8.92031H35.8193V5.46562H37.6281L39.9537 8.92031ZM11.6406 1.94649H30.5283V15.6363H21.1152C20.7584 13.6898 19.1342 12.2203 17.1777 12.2203C15.2213 12.2203 13.5848 13.6898 13.2402 15.6363H11.6406V1.94649ZM17.1777 18.6785C15.9842 18.6785 15.0121 17.6602 15.0121 16.4098C15.0121 15.1594 15.9842 14.141 17.1777 14.141C18.3713 14.141 19.3434 15.1594 19.3434 16.4098C19.3434 17.6602 18.3713 18.6785 17.1777 18.6785ZM35.118 18.6785C33.9244 18.6785 32.9523 17.6602 32.9523 16.4098C32.9523 15.1594 33.9244 14.141 35.118 14.141C36.3115 14.141 37.2836 15.1594 37.2836 16.4098C37.2836 17.6602 36.3115 18.6785 35.118 18.6785ZM39.0555 15.6363C38.6986 13.6898 37.0744 12.2203 35.118 12.2203C34.0598 12.2203 33.0877 12.6586 32.374 13.3676V5.46562H33.9613V9.88711C33.9613 10.4156 34.3797 10.8539 34.8842 10.8539H39.966V15.6363H39.0555Z" fill="white"/>
<path d="M0.922852 1.94629H7.50586C8.01035 1.94629 8.42871 1.50801 8.42871 0.979492C8.42871 0.450977 8.01035 0.0126953 7.50586 0.0126953H0.922852C0.418359 0.0126953 0 0.450977 0 0.979492C0 1.50801 0.418359 1.94629 0.922852 1.94629Z" fill="white"/>
<path d="M7.50606 3.53223H2.43652C1.93203 3.53223 1.51367 3.97051 1.51367 4.49902C1.51367 5.02754 1.93203 5.46582 2.43652 5.46582H7.50606C8.01055 5.46582 8.42891 5.02754 8.42891 4.49902C8.42891 3.97051 8.02285 3.53223 7.50606 3.53223Z" fill="white"/>
<path d="M7.50586 7.05127H4.30664C3.80215 7.05127 3.38379 7.48955 3.38379 8.01807C3.38379 8.54658 3.80215 8.98486 4.30664 8.98486H7.50586C8.01035 8.98486 8.42871 8.54658 8.42871 8.01807C8.42871 7.48955 8.02266 7.05127 7.50586 7.05127Z" fill="white"/>
<path d="M7.50586 10.5703H6.39844C5.89395 10.5703 5.47559 11.0086 5.47559 11.5371C5.47559 12.0656 5.89395 12.5039 6.39844 12.5039H7.50586C8.01035 12.5039 8.42871 12.0656 8.42871 11.5371C8.42871 11.0086 8.02266 10.5703 7.50586 10.5703Z" fill="white"/>
</svg>
