<svg width="56" height="38" viewBox="0 0 56 38" fill="none" xmlns="http://www.w3.org/2000/svg">
<path d="M25.9596 30.1267C23.7072 30.1267 21.8906 31.7319 21.8906 33.7267C21.8906 35.7091 23.7072 37.3192 25.9596 37.3192C28.2026 37.3192 30.0297 35.7091 30.0297 33.7267C30.0297 31.7319 28.2026 30.1267 25.9596 30.1267Z" fill="#F27400"/>
<path d="M42.5431 30.1267C40.2946 30.1267 38.4746 31.7319 38.4746 33.7267C38.4746 35.7091 40.2945 37.3192 42.5431 37.3192C44.7861 37.3192 46.6104 35.7091 46.6104 33.7267C46.6104 31.7319 44.7861 30.1267 42.5431 30.1267Z" fill="#F27400"/>
<path d="M45.863 14.1123H22.6309L23.5582 16.8131H44.943L45.863 14.1123Z" fill="#F27400"/>
<path d="M43.0982 22.2059L44.0204 19.51H24.4863L25.4119 22.2059H43.0982Z" fill="#F27400"/>
<path d="M20.3562 7.4392L21.7015 11.4189H49.8992L45.3019 24.8889H23.2125L14.9239 0.680908H0V4.6304H11.5775L19.885 28.8661H48.6149L55.9622 7.4392H20.3562Z" fill="#F27400"/>
</svg>
