<svg width="33" height="25" viewBox="0 0 33 25" fill="none" xmlns="http://www.w3.org/2000/svg">
<path d="M15.2902 19.8015C13.9635 19.8015 12.8936 20.881 12.8936 22.2224C12.8936 23.5556 13.9635 24.6383 15.2902 24.6383C16.6114 24.6383 17.6875 23.5556 17.6875 22.2224C17.6875 20.881 16.6114 19.8015 15.2902 19.8015Z" fill="black"/>
<path d="M25.058 19.8015C23.7336 19.8015 22.6616 20.881 22.6616 22.2224C22.6616 23.5556 23.7335 24.6383 25.058 24.6383C26.3791 24.6383 27.4537 23.5556 27.4537 22.2224C27.4537 20.881 26.3791 19.8015 25.058 19.8015Z" fill="black"/>
<path d="M27.014 9.03223H13.3301L13.8763 10.8484H26.4721L27.014 9.03223Z" fill="black"/>
<path d="M25.3849 14.475L25.9281 12.6621H14.4224L14.9676 14.475H25.3849Z" fill="black"/>
<path d="M11.99 4.54477L12.7824 7.22099H29.3911L26.6832 16.2792H13.6724L8.79031 0H0V2.65593H6.81922L11.7124 18.9538H28.6346L32.9622 4.54477H11.99Z" fill="black"/>
</svg>
