<svg width="42" height="33" viewBox="0 0 42 33" fill="none" xmlns="http://www.w3.org/2000/svg">
<path d="M19.6539 25.9756C17.987 25.9756 16.6426 27.3561 16.6426 29.0717C16.6426 30.7767 17.987 32.1614 19.6539 32.1614C21.3139 32.1614 22.666 30.7767 22.666 29.0717C22.666 27.3561 21.3139 25.9756 19.6539 25.9756Z" fill="black"/>
<path d="M31.927 25.9756C30.2629 25.9756 28.916 27.3561 28.916 29.0717C28.916 30.7767 30.2628 32.1614 31.927 32.1614C33.5869 32.1614 34.937 30.7767 34.937 29.0717C34.937 27.3561 33.5869 25.9756 31.927 25.9756Z" fill="black"/>
<path d="M34.3847 12.2025H17.1914L17.8777 14.5253H33.7038L34.3847 12.2025Z" fill="black"/>
<path d="M32.3384 19.1633L33.0209 16.8447H18.5645L19.2495 19.1633H32.3384Z" fill="black"/>
<path d="M15.5082 6.46328L16.5039 9.88594H37.3719L33.9696 21.4707H17.6221L11.488 0.650879H0.443359V4.0476H9.01141L15.1595 24.8913H36.4214L41.8589 6.46328H15.5082Z" fill="black"/>
</svg>
