<svg width="56" height="37" viewBox="0 0 56 37" fill="none" xmlns="http://www.w3.org/2000/svg">
<path d="M25.9596 29.4458C23.7072 29.4458 21.8906 31.051 21.8906 33.0458C21.8906 35.0282 23.7072 36.6383 25.9596 36.6383C28.2026 36.6383 30.0297 35.0282 30.0297 33.0458C30.0297 31.051 28.2026 29.4458 25.9596 29.4458Z" fill="black"/>
<path d="M42.5431 29.4458C40.2946 29.4458 38.4746 31.051 38.4746 33.0458C38.4746 35.0282 40.2945 36.6383 42.5431 36.6383C44.7861 36.6383 46.6104 35.0282 46.6104 33.0458C46.6104 31.051 44.7861 29.4458 42.5431 29.4458Z" fill="black"/>
<path d="M45.863 13.4314H22.6309L23.5582 16.1322H44.943L45.863 13.4314Z" fill="black"/>
<path d="M43.0982 21.525L44.0204 18.8291H24.4863L25.4119 21.525H43.0982Z" fill="black"/>
<path d="M20.3562 6.75829L21.7015 10.7379H49.8992L45.3019 24.208H23.2125L14.9239 0H0V3.94949H11.5775L19.885 28.1852H48.6149L55.9622 6.75829H20.3562Z" fill="black"/>
</svg>
