<svg width="55" height="37" viewBox="0 0 55 37" fill="none" xmlns="http://www.w3.org/2000/svg">
<path d="M25.069 29C22.8166 29 21 30.6052 21 32.6C21 34.5824 22.8166 36.1925 25.069 36.1925C27.312 36.1925 29.1391 34.5824 29.1391 32.6C29.1391 30.6052 27.312 29 25.069 29Z" fill="#F27400"/>
<path d="M42.5431 29.127C40.2946 29.127 38.4746 30.7322 38.4746 32.7269C38.4746 34.7094 40.2945 36.3195 42.5431 36.3195C44.7861 36.3195 46.6104 34.7094 46.6104 32.7269C46.6104 30.7322 44.7861 29.127 42.5431 29.127Z" fill="#F27400"/>
<path d="M51.5637 5.03309C50.7417 5.16231 50.0661 5.75063 49.8251 6.54713L45.6948 20.1998C45.3119 21.4654 44.1456 22.3311 42.8234 22.3311H25.174C23.9178 22.3311 22.7946 21.5484 22.3596 20.3699L15.5648 1.96119C15.1298 0.782684 14.0066 0 12.7504 0H1.82164C0.815578 0 0 0.815576 0 1.82164V1.82164C0 2.82771 0.815577 3.64328 1.82164 3.64328H9.4234C10.6792 3.64328 11.8021 4.42547 12.2374 5.60344L19.0501 24.0398C19.4854 25.2178 20.6083 26 21.8641 26H46.1326C47.4479 26 48.6097 25.1433 48.9985 23.8869L53.9717 7.81591C54.446 6.28306 53.1488 4.78391 51.5637 5.03309V5.03309Z" fill="#F27400"/>
</svg>
