<svg width="67" height="46" viewBox="0 0 67 46" fill="none" xmlns="http://www.w3.org/2000/svg">
<path d="M30.9617 36.9697C28.2894 36.9697 26.1342 38.9851 26.1342 41.4896C26.1342 43.9786 28.2894 46.0001 30.9617 46.0001C33.6228 46.0001 35.7905 43.9786 35.7905 41.4896C35.7905 38.9851 33.6228 36.9697 30.9617 36.9697Z" fill="#F27400"/>
<path d="M50.6371 36.9697C47.9695 36.9697 45.8102 38.9851 45.8102 41.4896C45.8102 43.9786 47.9693 46.0001 50.6371 46.0001C53.2982 46.0001 55.4626 43.9786 55.4626 41.4896C55.4626 38.9851 53.2982 36.9697 50.6371 36.9697Z" fill="#F27400"/>
<path d="M54.5768 16.8633H27.0137L28.1138 20.2541H53.4852L54.5768 16.8633Z" fill="#F27400"/>
<path d="M53.0709 25.9892L54.165 22.6045H30.9894L32.0875 25.9892H53.0709Z" fill="#F27400"/>
<path d="M24.3143 8.48514L25.9104 13.4817H59.3647L53.9103 30.3935H27.703L17.8693 0H0.163269V4.95865H13.899L23.7552 35.387H57.8409L66.5578 8.48514H24.3143Z" fill="#F27400"/>
</svg>
