<svg width="54" height="42" viewBox="0 0 54 42" fill="none" xmlns="http://www.w3.org/2000/svg">
<path d="M20.2495 38.0622C22.1135 38.0622 23.6245 36.887 23.6245 35.4372C23.6245 33.9875 22.1135 32.8123 20.2495 32.8123C18.3855 32.8123 16.8745 33.9875 16.8745 35.4372C16.8745 36.887 18.3855 38.0622 20.2495 38.0622Z" fill="white"/>
<path d="M37.1245 38.0622C38.9885 38.0622 40.4995 36.887 40.4995 35.4372C40.4995 33.9875 38.9885 32.8123 37.1245 32.8123C35.2605 32.8123 33.7495 33.9875 33.7495 35.4372C33.7495 36.887 35.2605 38.0622 37.1245 38.0622Z" fill="white"/>
<path d="M38.1477 4.88872L32.748 2.53711L26.3289 12.1507L31.7286 14.5023L38.1477 4.88872Z" fill="white"/>
<path d="M27 2.625H18.5625V11.8125H27V2.625Z" fill="white"/>
<path fill-rule="evenodd" clip-rule="evenodd" d="M46.087 11.1904C46.3646 10.4016 46.152 9.55631 45.5141 8.90662C44.8762 8.25694 43.884 7.875 42.8326 7.875C32.6561 7.875 8.43848 7.875 8.43848 7.875L13.5001 22.3125H39.6098C41.1316 22.3125 42.4664 21.5198 42.8661 20.3779C43.689 18.0298 45.0908 14.0332 46.087 11.1904Z" fill="white"/>
<path fill-rule="evenodd" clip-rule="evenodd" d="M20.25 31.5C17.4555 31.5 15.1875 33.264 15.1875 35.4375C15.1875 37.611 17.4555 39.375 20.25 39.375C23.0445 39.375 25.3125 37.611 25.3125 35.4375C25.3125 33.264 23.0445 31.5 20.25 31.5ZM37.125 31.5C34.3305 31.5 32.0625 33.264 32.0625 35.4375C32.0625 37.611 34.3305 39.375 37.125 39.375C39.9195 39.375 42.1875 37.611 42.1875 35.4375C42.1875 33.264 39.9195 31.5 37.125 31.5ZM20.25 34.125C21.1815 34.125 21.9375 34.713 21.9375 35.4375C21.9375 36.162 21.1815 36.75 20.25 36.75C19.3185 36.75 18.5625 36.162 18.5625 35.4375C18.5625 34.713 19.3185 34.125 20.25 34.125ZM37.125 34.125C38.0565 34.125 38.8125 34.713 38.8125 35.4375C38.8125 36.162 38.0565 36.75 37.125 36.75C36.1935 36.75 35.4375 36.162 35.4375 35.4375C35.4375 34.713 36.1935 34.125 37.125 34.125ZM28.6875 3.89546L29.5751 2.07371C29.9059 1.39646 30.8796 1.0539 31.7503 1.31115L38.7467 3.37179C39.6174 3.62904 40.0562 4.38636 39.7254 5.06493L38.9965 6.56248H42.8321C44.4099 6.56248 45.8966 7.13471 46.8551 8.10989C47.8119 9.08508 48.1309 10.3517 47.7158 11.5355L44.4943 20.723C43.8936 22.4372 41.8922 23.625 39.609 23.625H15.6617L16.1848 25.2564C16.3738 25.8405 17.0488 26.25 17.8234 26.25H42.1875C43.119 26.25 43.875 26.838 43.875 27.5625C43.875 28.287 43.119 28.875 42.1875 28.875H17.8234C15.4997 28.875 13.4747 27.6452 12.9111 25.893L11.8665 22.6445L5.5333 5.24998H3.375C2.4435 5.24998 1.6875 4.66198 1.6875 3.93748C1.6875 3.21298 2.4435 2.62498 3.375 2.62498C3.375 2.62498 4.56636 2.62498 5.5333 2.62498C6.98624 2.62498 8.2755 3.34818 8.73619 4.42049L9.6542 6.56248H16.875V2.62498C16.875 1.90048 17.631 1.31248 18.5625 1.31248H27C27.9315 1.31248 28.6875 1.90048 28.6875 2.62498V3.89546ZM44.4589 10.8452L41.2375 20.0327C41.0383 20.6036 40.37 21 39.609 21H14.7893L10.6464 9.18748H42.8305C43.357 9.18748 43.8531 9.3778 44.172 9.7033C44.4909 10.0288 44.5973 10.4501 44.4589 10.8452ZM25.3125 6.56248H20.25V3.93748H25.3125V6.56248ZM30.9977 6.56248L32.1334 4.23148L35.9724 5.36153L35.3869 6.56248H30.9977Z" fill="black"/>
</svg>
