<?xml version="1.0" encoding="iso-8859-1"?>
<!-- Generator: Adobe Illustrator 19.1.0, SVG Export Plug-In . SVG Version: 6.00 Build 0)  -->
<svg version="1.1" id="Capa_1" xmlns="http://www.w3.org/2000/svg" xmlns:xlink="http://www.w3.org/1999/xlink" x="0px" y="0px"
	 viewBox="0 0 342.564 342.564" style="enable-background:new 0 0 342.564 342.564;" xml:space="preserve">
<g>
	<g id="Hearts_2_">
		<g>
			<path d="M318.624,50.159c-45.418-44.829-91.676-33.627-124.713,0l-22.675,22.675l-22.675-22.675
				c-33.038-33.627-79.408-45.486-124.713,0c-33.264,33.4-30.952,90.655,2.086,124.26l145.28,147.819l145.28-147.819
				C349.553,140.814,352.161,83.264,318.624,50.159z M295.927,163.534L171.213,288.248L46.5,163.534
				c-29.614-30.135-29.614-71.903,0-102.038s61.087-18.798,90.701,11.338l34.013,34.013l34.013-34.013
				c29.614-30.135,61.087-41.473,90.701-11.338C325.54,91.609,325.54,133.399,295.927,163.534z"/>
		</g>
	</g>
</g>
<g>
</g>
<g>
</g>
<g>
</g>
<g>
</g>
<g>
</g>
<g>
</g>
<g>
</g>
<g>
</g>
<g>
</g>
<g>
</g>
<g>
</g>
<g>
</g>
<g>
</g>
<g>
</g>
<g>
</g>
</svg>
