<svg width="61" height="56" viewBox="0 0 61 56" fill="none" xmlns="http://www.w3.org/2000/svg">
<path d="M18.0351 26.4186C17.2041 25.6744 15.8537 25.6744 15.0227 26.4186C14.1917 27.1628 14.1917 28.3721 15.0227 29.1163L24.8389 37.907C25.2545 38.2791 25.7738 38.4651 26.3451 38.4651C26.3971 38.4651 26.3971 38.4651 26.449 38.4651C27.0203 38.4186 27.5917 38.186 28.0072 37.7674L52.5738 11.3953C53.301 10.6046 53.1971 9.39533 52.3141 8.69766C51.4312 8.0465 50.0808 8.13952 49.3017 8.93022L26.1893 33.7209L18.0351 26.4186V26.4186Z" fill="#F27400"/>
<path d="M46.3931 5.11629C34.4474 -1.58138 19.1257 1.15048e-05 9.15359 8.93024C-2.5844 19.4419 -2.5844 36.6047 9.15359 47.1163C15.0226 52.3721 22.7613 55.0233 30.4482 55.0233C38.135 55.0233 45.8737 52.3721 51.7427 47.1163C61.7668 38.1395 63.4807 24.3721 55.9497 13.6744C55.3265 12.7907 54.028 12.5116 53.0412 13.0698C52.0544 13.6279 51.7427 14.7907 52.366 15.6744C58.8582 24.8837 57.352 36.6977 48.7303 44.4186C38.6544 53.4419 22.19 53.4419 12.1141 44.4186C2.03808 35.3954 2.03808 20.6512 12.1141 11.6279C20.7358 3.9535 33.8761 2.60466 44.1598 8.32559C45.1466 8.88373 46.4451 8.60466 47.0683 7.72094C47.6916 6.83722 47.3799 5.67443 46.3931 5.11629V5.11629Z" fill="#F27400"/>
</svg>
