<svg width="34" height="33" viewBox="0 0 34 33" fill="none" xmlns="http://www.w3.org/2000/svg">
<path d="M13.5639 10.1614C12.7848 10.4751 12.3613 11.4989 12.6198 12.4439C12.827 13.2009 13.4098 13.6809 14.034 13.6809C14.1891 13.6809 14.3468 13.6512 14.5019 13.5888C15.281 13.2752 15.7045 12.2513 15.4459 11.3064V11.3063C15.1873 10.3614 14.3429 9.84781 13.5639 10.1614ZM14.2743 12.7571C13.8733 12.9186 13.4388 12.6541 13.3058 12.1677C13.1728 11.6815 13.3907 11.1546 13.7916 10.9932C13.8714 10.9611 13.9526 10.9459 14.0323 10.9459C14.3536 10.9459 14.6535 11.193 14.7601 11.5825C14.8932 12.0688 14.6752 12.5956 14.2743 12.7571Z" fill="white"/>
<path d="M20.2388 13.9081C19.9795 12.963 19.1352 12.4494 18.3563 12.7636C17.5777 13.0768 17.1542 14.1007 17.4123 15.0455C17.4274 15.1008 17.445 15.1548 17.4643 15.2078H15.964L18.5575 8.93685L17.9115 8.54395L15.1555 15.2078H11.3281V16.0842H22.9146V15.2078H20.1884C20.3336 14.8096 20.3592 14.3496 20.2388 13.9081ZM18.0983 14.7702C17.9654 14.2836 18.1832 13.7567 18.5841 13.5955C18.9852 13.4339 19.4196 13.6982 19.5528 14.1841C19.6563 14.5631 19.5515 14.9686 19.2984 15.2079H18.353C18.2351 15.096 18.1458 14.9443 18.0983 14.7702Z" fill="white"/>
<path d="M15.0475 25.6649L15.5586 26.2847L21.1491 19.5035L20.638 18.8838L15.0475 25.6649Z" fill="white"/>
<path d="M16.0923 18.7607C15.2714 18.7607 14.6035 19.5707 14.6035 20.5664C14.6035 21.562 15.2714 22.3722 16.0923 22.3722C16.9133 22.3722 17.5811 21.5621 17.5811 20.5664C17.5811 19.5707 16.9133 18.7607 16.0923 18.7607ZM16.0923 21.4957C15.6699 21.4957 15.3262 21.0787 15.3262 20.5663C15.3262 20.0539 15.6699 19.6371 16.0923 19.6371C16.5148 19.6371 16.8584 20.0539 16.8584 20.5663C16.8585 21.0787 16.5148 21.4957 16.0923 21.4957Z" fill="white"/>
<path d="M18.4756 24.8668C18.4756 25.8623 19.1435 26.6724 19.9645 26.6724C20.7855 26.6724 21.4533 25.8624 21.4533 24.8668C21.4533 23.8711 20.7855 23.061 19.9645 23.061C19.1435 23.061 18.4756 23.8711 18.4756 24.8668ZM20.7306 24.8668C20.7306 25.3791 20.3869 25.796 19.9644 25.796C19.5419 25.796 19.1982 25.3791 19.1982 24.8668C19.1982 24.3543 19.5419 23.9375 19.9644 23.9375C20.3869 23.9376 20.7306 24.3544 20.7306 24.8668Z" fill="white"/>
<path d="M3.49534 16.0846H6.69837V16.0845C7.52813 16.0845 8.20323 17.1512 8.20323 18.4623H8.92589C8.92589 17.1512 9.60092 16.0845 10.4307 16.0845V15.208C9.601 15.208 8.92589 14.1413 8.92589 12.8303H8.20323C8.20323 14.1413 7.52813 15.208 6.69837 15.208V15.2081H2.77269V19.2263L0.91351 12.4333L3.95394 11.2102L3.72645 10.3784L0 11.8775L2.77276 22.0087V30.2234H22.915V29.3469H3.49534V16.0846ZM8.56463 14.6038C8.7557 15.0314 9.01355 15.3895 9.31656 15.6463C9.01355 15.9033 8.7557 16.2613 8.56463 16.6889C8.37356 16.2613 8.11572 15.9033 7.81271 15.6463C8.11572 15.3895 8.37356 15.0314 8.56463 14.6038Z" fill="white"/>
<path d="M27.118 29.3467H25.1709V30.2231H27.118V29.3467Z" fill="white"/>
<path d="M33.5025 19.8958H33.8639V15.208H25.1709V16.0844H33.1412V19.0456C31.6546 19.2627 30.4988 20.8018 30.4988 22.6622C30.4988 24.5232 31.6546 26.0629 33.1412 26.2799V29.3469H31.7648V29.3467C30.935 29.3467 30.2599 28.2801 30.2599 26.969H29.5373C29.5373 28.2801 28.8622 29.3467 28.0324 29.3467V30.2232C28.8622 30.2232 29.5373 31.29 29.5373 32.601H30.2599C30.2599 31.291 30.9338 30.2252 31.7627 30.2233H33.8639V25.4297H33.5025C32.2448 25.4297 31.2215 24.1883 31.2215 22.6622C31.2214 21.1368 32.2447 19.8958 33.5025 19.8958ZM29.8986 30.8274C29.7074 30.3998 29.4497 30.0418 29.1467 29.7849C29.4497 29.528 29.7075 29.17 29.8986 28.7424C30.0897 29.17 30.3475 29.528 30.6504 29.7849C30.3475 30.0418 30.0897 30.3998 29.8986 30.8274Z" fill="white"/>
<path d="M24.3848 27.0391H23.6621V28.0031H24.3848V27.0391Z" fill="white"/>
<path d="M24.3848 21.2549H23.6621V22.219H24.3848V21.2549Z" fill="white"/>
<path d="M24.3848 23.1831H23.6621V24.1472H24.3848V23.1831Z" fill="white"/>
<path d="M24.3848 28.9673H23.6621V29.9314H24.3848V28.9673Z" fill="white"/>
<path d="M24.3848 25.1108H23.6621V26.0749H24.3848V25.1108Z" fill="white"/>
<path d="M24.3848 15.4702H23.6621V16.4343H24.3848V15.4702Z" fill="white"/>
<path d="M24.3848 17.3984H23.6621V18.3625H24.3848V17.3984Z" fill="white"/>
<path d="M24.3848 19.3267H23.6621V20.2907H24.3848V19.3267Z" fill="white"/>
<path d="M27.0996 24.0347H26.377V25.7785H27.0996V24.0347Z" fill="white"/>
<path d="M27.0996 19.3369H26.377V23.1581H27.0996V19.3369Z" fill="white"/>
<path d="M28.3945 19.3369H27.6719V25.7784H28.3945V19.3369Z" fill="white"/>
<path d="M12.9113 19.9683H6.48633V20.8447H12.9113V19.9683Z" fill="white"/>
<path d="M5.76362 19.9683H4.91992V20.8447H5.76362V19.9683Z" fill="white"/>
<path d="M10.5139 24.8013H4.91992V25.6777H10.5139V24.8013Z" fill="white"/>
<path d="M12.912 22.3848H11.8037V23.2612H12.912V22.3848Z" fill="white"/>
<path d="M11.2322 22.3848H4.91992V23.2612H11.2322V22.3848Z" fill="white"/>
<path d="M19.3457 5.01542L19.1182 4.18359L8.12129 8.60867L8.34885 9.44049L19.3457 5.01542Z" fill="white"/>
<path d="M29.0509 1.10791L29.82 3.91804C29.2134 4.26344 28.7227 4.84163 28.4176 5.57942C28.0578 6.44928 27.9988 7.43685 28.2515 8.36027C28.5043 9.28413 29.0385 10.0332 29.7556 10.4697C30.364 10.8398 31.0422 10.9476 31.699 10.7847L32.6093 14.1111L33.2951 13.8351L32.164 9.70149L31.8211 9.83944C31.2429 10.0722 30.6246 10.0178 30.0798 9.68632C29.5351 9.35494 29.1294 8.78596 28.9373 8.08428C28.7455 7.38304 28.7902 6.63307 29.0635 5.9725C29.3367 5.31193 29.8056 4.81998 30.3838 4.5872L30.7267 4.44916L29.5092 0L21.2588 3.32083L21.4864 4.15266L29.0509 1.10791Z" fill="white"/>
<path d="M20.6453 6.89275L21.3311 6.6167L21.0807 5.70169L20.3949 5.97774L20.6453 6.89275Z" fill="white"/>
<path d="M22.3971 13.2964L22.6475 14.2114L23.3333 13.9353L23.0829 13.0203L22.3971 13.2964Z" fill="white"/>
<path d="M20.8305 4.78553L20.5801 3.87061L19.8943 4.14666L20.1447 5.06158L20.8305 4.78553Z" fill="white"/>
<path d="M22.8334 12.1058L22.583 11.1909L21.8972 11.467L22.1476 12.3819L22.8334 12.1058Z" fill="white"/>
<path d="M20.8971 7.80756L21.1475 8.72266L21.8333 8.44669L21.5829 7.5316L20.8971 7.80756Z" fill="white"/>
<path d="M22.3334 10.2759L22.083 9.36084L21.3972 9.63689L21.6476 10.5519L22.3334 10.2759Z" fill="white"/>
<path d="M25.3188 10.9867L24.6328 11.2627L25.0856 12.9178L25.7715 12.6418L25.3188 10.9867Z" fill="white"/>
<path d="M24.099 6.52818L23.4131 6.8042L24.4052 10.4309L25.0912 10.1549L24.099 6.52818Z" fill="white"/>
<path d="M26.3775 12.3981L27.0635 12.1221L25.391 6.00846L24.705 6.28448L26.3775 12.3981Z" fill="white"/>
</svg>
