<svg width="35" height="28" viewBox="0 0 35 28" fill="none" xmlns="http://www.w3.org/2000/svg">
<path fill-rule="evenodd" clip-rule="evenodd" d="M35 24.1818C35 23.1687 34.605 22.1976 33.9013 21.4824C33.1988 20.7658 32.245 20.3636 31.25 20.3636C26.9212 20.3636 18.0788 20.3636 13.75 20.3636C12.755 20.3636 11.8012 20.7658 11.0987 21.4824C10.395 22.1976 10 23.1687 10 24.1818C10 25.1949 10.395 26.166 11.0987 26.8813C11.8012 27.5978 12.755 28 13.75 28C18.0788 28 26.9212 28 31.25 28C32.245 28 33.1988 27.5978 33.9013 26.8813C34.605 26.166 35 25.1949 35 24.1818ZM32.5 24.1818C32.5 24.5191 32.3688 24.8436 32.1338 25.0816C31.9 25.3209 31.5812 25.4545 31.25 25.4545H13.75C13.4188 25.4545 13.1 25.3209 12.8663 25.0816C12.6313 24.8436 12.5 24.5191 12.5 24.1818C12.5 23.8445 12.6313 23.52 12.8663 23.282C13.1 23.0427 13.4188 22.9091 13.75 22.9091H31.25C31.5812 22.9091 31.9 23.0427 32.1338 23.282C32.3688 23.52 32.5 23.8445 32.5 24.1818Z" fill="black"/>
<path fill-rule="evenodd" clip-rule="evenodd" d="M3.75 20.3636C1.68 20.3636 0 22.0742 0 24.1818C0 26.2895 1.68 28 3.75 28C5.82 28 7.5 26.2895 7.5 24.1818C7.5 22.0742 5.82 20.3636 3.75 20.3636ZM3.75 22.9091C4.44 22.9091 5 23.4793 5 24.1818C5 24.8844 4.44 25.4545 3.75 25.4545C3.06 25.4545 2.5 24.8844 2.5 24.1818C2.5 23.4793 3.06 22.9091 3.75 22.9091Z" fill="black"/>
<path fill-rule="evenodd" clip-rule="evenodd" d="M35 14C35 12.9869 34.605 12.0158 33.9013 11.3006C33.1988 10.584 32.245 10.1818 31.25 10.1818C26.9212 10.1818 18.0788 10.1818 13.75 10.1818C12.755 10.1818 11.8012 10.584 11.0987 11.3006C10.395 12.0158 10 12.9869 10 14C10 15.0131 10.395 15.9842 11.0987 16.6995C11.8012 17.416 12.755 17.8182 13.75 17.8182C18.0788 17.8182 26.9212 17.8182 31.25 17.8182C32.245 17.8182 33.1988 17.416 33.9013 16.6995C34.605 15.9842 35 15.0131 35 14V14ZM32.5 14C32.5 14.3373 32.3688 14.6618 32.1338 14.8998C31.9 15.1391 31.5812 15.2727 31.25 15.2727H13.75C13.4188 15.2727 13.1 15.1391 12.8663 14.8998C12.6313 14.6618 12.5 14.3373 12.5 14C12.5 13.6627 12.6313 13.3382 12.8663 13.1002C13.1 12.8609 13.4188 12.7273 13.75 12.7273H31.25C31.5812 12.7273 31.9 12.8609 32.1338 13.1002C32.3688 13.3382 32.5 13.6627 32.5 14Z" fill="black"/>
<path fill-rule="evenodd" clip-rule="evenodd" d="M3.75 10.1818C1.68 10.1818 0 11.8924 0 14C0 16.1076 1.68 17.8182 3.75 17.8182C5.82 17.8182 7.5 16.1076 7.5 14C7.5 11.8924 5.82 10.1818 3.75 10.1818ZM3.75 12.7273C4.44 12.7273 5 13.2975 5 14C5 14.7026 4.44 15.2727 3.75 15.2727C3.06 15.2727 2.5 14.7026 2.5 14C2.5 13.2975 3.06 12.7273 3.75 12.7273Z" fill="black"/>
<path fill-rule="evenodd" clip-rule="evenodd" d="M3.75 0C1.68 0 0 1.71055 0 3.81818C0 5.92582 1.68 7.63636 3.75 7.63636C5.82 7.63636 7.5 5.92582 7.5 3.81818C7.5 1.71055 5.82 0 3.75 0ZM3.75 2.54545C4.44 2.54545 5 3.11564 5 3.81818C5 4.52073 4.44 5.09091 3.75 5.09091C3.06 5.09091 2.5 4.52073 2.5 3.81818C2.5 3.11564 3.06 2.54545 3.75 2.54545Z" fill="black"/>
<path fill-rule="evenodd" clip-rule="evenodd" d="M35 3.81818C35 2.80509 34.605 1.834 33.9013 1.11873C33.1988 0.402182 32.245 0 31.25 0C26.9212 0 18.0788 0 13.75 0C12.755 0 11.8012 0.402182 11.0987 1.11873C10.395 1.834 10 2.80509 10 3.81818C10 4.83127 10.395 5.80236 11.0987 6.51764C11.8012 7.23418 12.755 7.63636 13.75 7.63636C18.0788 7.63636 26.9212 7.63636 31.25 7.63636C32.245 7.63636 33.1988 7.23418 33.9013 6.51764C34.605 5.80236 35 4.83127 35 3.81818ZM32.5 3.81818C32.5 4.15545 32.3688 4.48 32.1338 4.718C31.9 4.95727 31.5812 5.09091 31.25 5.09091H13.75C13.4188 5.09091 13.1 4.95727 12.8663 4.718C12.6313 4.48 12.5 4.15545 12.5 3.81818C12.5 3.48091 12.6313 3.15636 12.8663 2.91836C13.1 2.67909 13.4188 2.54545 13.75 2.54545H31.25C31.5812 2.54545 31.9 2.67909 32.1338 2.91836C32.3688 3.15636 32.5 3.48091 32.5 3.81818Z" fill="black"/>
</svg>
