<svg width="22" height="21" viewBox="0 0 22 21" fill="none" xmlns="http://www.w3.org/2000/svg">
<path d="M19.25 2.625H2.75C1.23131 2.625 0 3.80034 0 5.25V15.75C0 17.1997 1.23131 18.375 2.75 18.375H19.25C20.7687 18.375 22 17.1997 22 15.75V5.25C22 3.80034 20.7687 2.625 19.25 2.625ZM14.7235 9.62969L20.5444 4.86802C20.5847 4.99107 20.625 5.11412 20.625 5.25V15.75C20.625 15.841 20.5887 15.9218 20.57 16.0076L14.7235 9.62969ZM19.25 3.9375C19.3413 3.9375 19.4219 3.97085 19.5078 3.9875L11 10.9486L2.49219 3.9875C2.57812 3.97085 2.65869 3.9375 2.75 3.9375H19.25ZM1.4294 16.0063C1.41058 15.9205 1.375 15.841 1.375 15.75V5.25C1.375 5.11412 1.41595 4.99107 1.45625 4.86802L7.27517 9.62842L1.4294 16.0063ZM2.75 17.0625C2.61104 17.0625 2.4848 17.024 2.35791 16.9869L8.31982 10.4833L10.5529 12.3098C10.6811 12.4162 10.8409 12.4688 11 12.4688C11.1591 12.4688 11.3189 12.4162 11.4471 12.3098L13.6802 10.4833L19.6421 16.9869C19.5159 17.024 19.3896 17.0625 19.25 17.0625H2.75Z" fill="#F27400"/>
</svg>
