<svg width="39" height="43" viewBox="0 0 39 43" fill="none" xmlns="http://www.w3.org/2000/svg">
<g clip-path="url(#clip0_1339_34)">
<path d="M11.0503 0C9.98172 0 9.10032 0.9718 9.10032 2.15V10.75C9.10032 11.7032 10.4003 11.7103 10.4003 10.75V2.15C10.4003 1.74007 10.6785 1.43333 11.0503 1.43333H37.0503C37.4221 1.43333 37.7003 1.74007 37.7003 2.15V40.85C37.7003 41.2599 37.4221 41.5667 37.0503 41.5667H11.0503C10.6785 41.5667 10.4003 41.2599 10.4003 40.85V30.8167C10.4003 29.8707 9.10032 29.8793 9.10032 30.8167V40.85C9.10032 42.0282 9.98172 43 11.0503 43H37.0503C38.1189 43 39.0003 42.0282 39.0003 40.85V2.15C39.0003 0.9718 38.1189 0 37.0503 0H11.0503ZM5.85032 27.2333C6.43532 27.2333 6.68622 26.4264 6.31052 26.0093L1.56942 20.7833L6.31052 15.5574C6.88512 14.9468 5.98032 13.8947 5.39012 14.5426L0.190125 20.2759C-0.063375 20.5569 -0.063375 21.0098 0.190125 21.2907L5.39012 27.0241C5.51362 27.1631 5.67612 27.2333 5.85032 27.2333ZM22.7503 21.5H4.55032C4.19022 21.5 3.90032 21.1804 3.90032 20.7833C3.90032 20.3863 4.19022 20.0667 4.55032 20.0667H22.7503C23.1104 20.0667 23.4003 20.3863 23.4003 20.7833C23.4003 21.1804 23.1104 21.5 22.7503 21.5Z" fill="white"/>
</g>
<defs>
<clipPath id="clip0_1339_34">
<rect width="39" height="43" fill="white"/>
</clipPath>
</defs>
</svg>
