<svg width="58" height="53" viewBox="0 0 58 53" fill="none" xmlns="http://www.w3.org/2000/svg">
<path d="M54.8001 0.00248519L3.19987 0.00248519C1.43274 0.00248519 0 1.31165 0 2.92637L0 50.0761C0 51.6908 1.43274 53 3.19987 53H30.9765V32.4757H23.4131V24.4816H30.9765V18.5742C30.9765 11.7328 35.552 8.00652 42.2372 8.00652C45.4398 8.00652 48.1911 8.22015 48.9958 8.31952V15.474H44.355C40.7283 15.474 40.0242 17.0663 40.0242 19.3841V24.4866H48.6859L47.5603 32.5005H40.0215V52.9975H54.7974C56.5673 52.9975 58 51.6908 58 50.0736V2.92388C58 1.30916 56.57 0 54.8001 0V0.00248519Z" fill="white"/>
</svg>
