<svg width="36" height="51" viewBox="0 0 36 51" fill="none" xmlns="http://www.w3.org/2000/svg">
<path d="M32.5529 23.234C31.9503 22.384 31.2429 21.6473 30.5617 20.9106C28.8586 19.2105 26.8935 17.9922 25.2429 16.2071C21.4176 12.0703 20.6315 5.24182 23.0158 0C20.6315 0.651685 18.4307 2.12506 16.5966 3.74011C9.94157 9.63361 7.32148 20.0322 10.4656 28.9575C10.5704 29.2408 10.6752 29.5242 10.6752 29.8925C10.6752 30.5159 10.2822 31.0826 9.75816 31.3092C9.18174 31.5926 8.55292 31.4226 8.0813 30.9692C7.9241 30.8275 7.81929 30.6859 7.68829 30.4875C4.80619 26.4358 4.33457 20.6273 6.29964 15.9805C2.00269 19.8339 -0.329186 26.3508 0.037627 32.4993C0.142431 33.916 0.299636 35.3327 0.745051 36.7494C1.11186 38.4494 1.79309 40.1495 2.63152 41.6512C5.35641 46.553 10.1512 50.0664 15.3127 50.7748C20.8149 51.5398 26.7101 50.4348 30.9285 46.2413C35.6446 41.5378 37.3477 34.001 34.8586 27.5408L34.518 26.8041C33.994 25.5007 33.2866 24.339 32.4219 23.2623L32.5529 23.234ZM24.4307 41.0845C23.697 41.7645 22.518 42.5012 21.601 42.7846C18.7189 43.9179 15.8368 42.3312 14.0813 40.4612C17.1992 39.6678 19.0333 37.1744 19.5573 34.6527C20.0027 32.3859 19.1905 30.5159 18.8499 28.3341C18.5355 26.2374 18.5879 24.4524 19.3215 22.4973C19.7669 23.574 20.2909 24.6507 20.8935 25.5007C22.8848 28.3341 26.0027 29.5808 26.6577 33.4343C26.7625 33.831 26.8149 34.2276 26.8149 34.6527C26.8935 36.9761 25.9765 39.5261 24.4045 41.0845H24.4307Z" fill="black"/>
</svg>
