<svg width="26" height="30" viewBox="0 0 26 30" fill="none" xmlns="http://www.w3.org/2000/svg">
<path d="M7.31936 30C5.32358 25.8396 6.3864 23.4557 7.92031 21.2097C9.60009 18.75 10.033 16.3152 10.033 16.3152C10.033 16.3152 11.3535 18.0349 10.8252 20.7246C13.1581 18.1231 13.5983 13.9781 13.2461 12.3907C18.5191 16.0824 20.7727 24.0759 17.7356 30C33.8891 20.8438 21.7537 7.14342 19.641 5.60014C20.3452 7.14336 20.4788 9.75589 19.0561 11.0238C16.6478 1.87498 10.6932 0 10.6932 0C11.3975 4.71808 8.14041 9.87728 4.9996 13.7323C4.88927 11.851 4.77204 10.5528 3.78451 8.75245C3.56283 12.1701 0.955715 14.956 0.249711 18.3803C-0.706601 23.0175 0.966046 26.4129 7.31936 30Z" fill="black"/>
</svg>
