<svg width="76" height="79" viewBox="0 0 76 79" fill="none" xmlns="http://www.w3.org/2000/svg">
<path d="M55.1529 21.6696C53.9444 20.4132 52.3374 19.7214 50.6287 19.7214C48.92 19.7214 47.3129 20.4132 46.1043 21.6696C44.8959 22.9257 44.2305 24.5959 44.2305 26.3721C44.2305 28.1487 44.8959 29.8189 46.1043 31.0751C47.3129 32.3313 48.9195 33.0228 50.6281 33.0231C50.6287 33.0231 50.6287 33.0231 50.6287 33.0231C52.3374 33.0231 53.9444 32.3313 55.1529 31.0751C56.3614 29.8187 57.0269 28.1486 57.0269 26.3721C57.0267 24.5959 56.3612 22.9258 55.1529 21.6696ZM52.6078 28.4296C52.079 28.9794 51.3766 29.2824 50.6285 29.2824C49.8807 29.2822 49.1778 28.9794 48.6493 28.4296C48.1205 27.8804 47.8292 27.1498 47.8292 26.3722C47.8292 25.5953 48.1203 24.8644 48.6493 24.3149C49.1778 23.7653 49.8812 23.4627 50.6285 23.4627C51.376 23.4627 52.079 23.7652 52.6078 24.3149C53.6995 25.4493 53.6995 27.2952 52.6078 28.4296Z" fill="white"/>
<path d="M5.91654 61.9378C5.45607 61.9378 4.9957 61.7554 4.64429 61.3901C3.94149 60.6597 3.94149 59.4749 4.64429 58.7446L15.0496 47.9283C15.7525 47.1979 16.8919 47.1979 17.5947 47.9283C18.2975 48.6588 18.2975 49.8436 17.5947 50.574L7.18897 61.3901C6.83766 61.7554 6.37719 61.9378 5.91654 61.9378Z" fill="white"/>
<path d="M8.24299 72.302C7.78224 72.302 7.32187 72.1193 6.97047 71.754C6.26766 71.0236 6.26766 69.8393 6.97047 69.1089L17.8162 57.8349C18.519 57.1043 19.6585 57.1043 20.361 57.8349C21.0638 58.5655 21.0638 59.75 20.361 60.4804L9.51542 71.754C9.16411 72.1193 8.70336 72.302 8.24299 72.302Z" fill="white"/>
<path d="M18.2137 74.7203C17.753 74.7203 17.2926 74.5379 16.9412 74.1726C16.2384 73.4422 16.2384 72.2576 16.9412 71.5272L27.3468 60.7105C28.0494 59.9804 29.189 59.9802 29.8916 60.7105C30.5944 61.441 30.5944 62.6258 29.8916 63.3563L19.4862 74.1726C19.1348 74.5378 18.6744 74.7203 18.2137 74.7203Z" fill="white"/>
<path d="M71.3563 4.82798C70.9476 4.40336 70.3674 4.20803 69.798 4.30352C69.5888 4.33877 64.601 5.1903 57.8042 7.88973C53.8167 9.47308 50.0285 11.3694 46.544 13.526C42.2653 16.1739 38.4352 19.2259 35.1536 22.5982L21.5633 25.3484C21.2125 25.4193 20.8902 25.5977 20.6368 25.8597L8.32425 38.6172C7.76308 39.1984 7.63388 40.0923 8.00505 40.8194C8.3214 41.4386 8.93776 41.8127 9.59392 41.8127C9.70811 41.8127 9.82335 41.8015 9.93858 41.7785L23.8262 38.9677C22.9221 40.8116 22.0763 42.7257 21.2913 44.7095C21.0154 45.4078 21.1698 46.2099 21.6831 46.744L25.0852 50.2803L21.9245 53.5657C21.2217 54.2963 21.2217 55.4805 21.9245 56.211C22.2759 56.5762 22.7363 56.7589 23.1973 56.7589C23.6577 56.7589 24.1181 56.5762 24.4695 56.2113L27.6301 52.9257L31.0322 56.4623C31.3766 56.8197 31.8367 57.0101 32.3052 57.0101C32.5354 57.0101 32.7679 56.964 32.9891 56.8693C34.8977 56.0535 36.7392 55.1743 38.5125 54.2349L35.8093 68.6707C35.6579 69.4788 36.0325 70.2945 36.7316 70.6805C36.9982 70.8274 37.2876 70.899 37.5751 70.899C38.0422 70.899 38.504 70.7096 38.8497 70.3487L51.1226 57.5503C51.3749 57.2873 51.5462 56.9518 51.6148 56.5872L54.2601 42.4605C57.5041 39.049 60.4408 35.0682 62.9883 30.6203C65.0625 26.9979 66.8871 23.0602 68.4106 18.9156C71.007 11.8499 71.8266 6.66582 71.8603 6.44837C71.9522 5.85508 71.7642 5.25231 71.3563 4.82798ZM15.0479 36.9326L22.7893 28.9117L31.1184 27.2262C29.3119 29.536 27.6361 32.0288 26.0979 34.6964L15.0479 36.9326ZM48.1863 55.3119L40.4702 63.359L42.6213 51.8728C45.1883 50.2738 47.5859 48.5321 49.8079 46.654L48.1863 55.3119ZM65.0146 17.6699C62.7427 23.8291 58.5537 32.7098 51.5021 40.0399C48.2559 43.414 44.4759 46.4132 40.2076 49.0101C40.1312 49.0497 40.057 49.0944 39.987 49.145C37.7023 50.5219 35.2782 51.7844 32.7218 52.9273L30.1752 50.2799L35.3156 44.937C36.0182 44.2065 36.0182 43.022 35.3156 42.2915C34.6128 41.561 33.4734 41.5611 32.7706 42.2915L27.6302 47.6344L25.0837 44.987C26.1836 42.3294 27.398 39.8093 28.7229 37.4339C28.7712 37.3616 28.8133 37.2857 28.8512 37.2072C31.3495 32.7696 34.235 28.8399 37.4818 25.465C44.5332 18.1352 53.0767 13.781 59.0019 11.4192C62.6021 9.98372 65.7015 9.08865 67.7504 8.57554C67.2566 10.7057 66.3955 13.9275 65.0146 17.6699Z" fill="white"/>
</svg>
