<svg width="50" height="50" viewBox="0 0 58 58" fill="none" xmlns="http://www.w3.org/2000/svg">
<path d="M42.0914 15.9093C41.1691 14.9869 39.9427 14.4791 38.6387 14.4791C37.3347 14.4791 36.1083 14.9869 35.1859 15.9093C34.2637 16.8315 33.7559 18.0578 33.7559 19.3619C33.7559 20.6661 34.2637 21.8924 35.1859 22.8147C36.1083 23.737 37.3343 24.2446 38.6382 24.2448C38.6387 24.2448 38.6387 24.2448 38.6387 24.2448C39.9427 24.2448 41.1691 23.737 42.0914 22.8147C43.0137 21.8923 43.5215 20.6661 43.5215 19.3619C43.5214 18.0578 43.0135 16.8316 42.0914 15.9093ZM40.1491 20.8724C39.7455 21.2761 39.2095 21.4985 38.6386 21.4985C38.0679 21.4984 37.5314 21.2761 37.1281 20.8724C36.7246 20.4692 36.5022 19.9328 36.5022 19.3619C36.5022 18.7915 36.7244 18.2549 37.1281 17.8515C37.5314 17.448 38.0682 17.2258 38.6386 17.2258C39.209 17.2258 39.7455 17.4479 40.1491 17.8515C40.9822 18.6844 40.9822 20.0395 40.1491 20.8724Z" fill="black"/>
<path d="M4.51576 45.4733C4.16436 45.4733 3.81302 45.3394 3.54484 45.0712C3.00849 44.5349 3.00849 43.6651 3.54484 43.1289L11.4858 35.1879C12.0221 34.6516 12.8917 34.6516 13.428 35.1879C13.9644 35.7241 13.9644 36.594 13.428 37.1303L5.48683 45.0712C5.21872 45.3394 4.86732 45.4733 4.51576 45.4733Z" fill="black"/>
<path d="M6.29137 53.0825C5.93975 53.0825 5.58841 52.9484 5.32023 52.6802C4.78388 52.1439 4.78388 51.2745 5.32023 50.7382L13.5973 42.4611C14.1336 41.9247 15.0032 41.9247 15.5393 42.4611C16.0757 42.9975 16.0757 43.8671 15.5393 44.4034L7.26244 52.6802C6.99433 52.9484 6.64271 53.0825 6.29137 53.0825Z" fill="black"/>
<path d="M13.9007 54.8579C13.5492 54.8579 13.1978 54.724 12.9296 54.4558C12.3933 53.9195 12.3933 53.0498 12.9296 52.5136L20.8708 44.5723C21.407 44.0362 22.2767 44.0361 22.8128 44.5723C23.3492 45.1086 23.3492 45.9784 22.8128 46.5148L14.8719 54.4558C14.6037 54.7239 14.2523 54.8579 13.9007 54.8579Z" fill="black"/>
<path d="M54.4566 3.54461C54.1447 3.23286 53.7019 3.08945 53.2673 3.15956C53.1077 3.18544 49.3012 3.81061 44.1142 5.79247C41.0711 6.95494 38.1801 8.34715 35.5209 9.93048C32.2555 11.8745 29.3326 14.1153 26.8282 16.5911L16.4567 18.6103C16.189 18.6623 15.943 18.7932 15.7496 18.9856L6.35318 28.3519C5.92492 28.7786 5.82632 29.4349 6.10958 29.9687C6.351 30.4233 6.82138 30.698 7.32214 30.698C7.40928 30.698 7.49723 30.6897 7.58517 30.6728L18.1836 28.6092C17.4937 29.963 16.8482 31.3682 16.2491 32.8247C16.0385 33.3374 16.1563 33.9262 16.5481 34.3184L19.1444 36.9147L16.7323 39.3268C16.196 39.8631 16.196 40.7325 16.7323 41.2688C17.0005 41.537 17.3519 41.6711 17.7036 41.6711C18.055 41.6711 18.4064 41.537 18.6746 41.269L21.0866 38.8569L23.6829 41.4533C23.9457 41.7157 24.2969 41.8556 24.6544 41.8556C24.8301 41.8556 25.0076 41.8217 25.1763 41.7522C26.6329 41.1532 28.0383 40.5077 29.3916 39.818L27.3286 50.4165C27.2131 51.0098 27.499 51.6086 28.0325 51.892C28.2359 51.9999 28.4568 52.0525 28.6762 52.0525C29.0327 52.0525 29.3851 51.9134 29.6489 51.6484L39.0151 42.2521C39.2076 42.0591 39.3384 41.8127 39.3907 41.545L41.4095 31.1736C43.8852 28.6689 46.1263 25.7463 48.0705 22.4807C49.6534 19.8212 51.0459 16.9303 52.2086 13.8874C54.19 8.69994 54.8155 4.89391 54.8412 4.73426C54.9114 4.29868 54.7679 3.85614 54.4566 3.54461ZM11.4844 27.1151L17.3923 21.2263L23.7487 19.9888C22.3701 21.6847 21.0912 23.5148 19.9173 25.4733L11.4844 27.1151ZM36.7742 40.6088L30.8857 46.5167L32.5273 38.0838C34.4863 36.9099 36.316 35.6312 38.0118 34.2523L36.7742 40.6088ZM49.6169 12.9729C47.8831 17.4948 44.6862 24.0148 39.3047 29.3964C36.8273 31.8736 33.9426 34.0755 30.6852 35.9821C30.6269 36.0112 30.5703 36.044 30.5168 36.0812C28.7733 37.092 26.9233 38.0189 24.9723 38.8581L23.0289 36.9144L26.9519 32.9917C27.488 32.4554 27.488 31.5858 26.9519 31.0494C26.4155 30.5132 25.546 30.5132 25.0096 31.0494L21.0867 34.9721L19.1433 33.0285C19.9827 31.0773 20.9094 29.2271 21.9206 27.4831C21.9574 27.43 21.9895 27.3743 22.0185 27.3167C23.9251 24.0587 26.1272 21.1736 28.605 18.6958C33.9863 13.3145 40.5063 10.1177 45.0282 8.38377C47.7758 7.32983 50.1411 6.67269 51.7048 6.29598C51.3279 7.85988 50.6707 10.2253 49.6169 12.9729Z" fill="black"/>
</svg>
