<svg width="49" height="54" viewBox="0 0 49 54" fill="none" xmlns="http://www.w3.org/2000/svg">
<g clip-path="url(#clip0_1331_34)">
<path d="M44.6862 13.4283C44.596 13.295 44.4828 13.1827 44.3532 13.0976C44.2235 13.0125 44.08 12.9564 43.9307 12.9325C43.7813 12.9086 43.6292 12.9174 43.483 12.9583C43.3367 12.9992 43.1992 13.0715 43.0784 13.171L24.5541 28.4091C24.4878 28.4639 24.4072 28.4935 24.3244 28.4935C24.2415 28.4935 24.161 28.4639 24.0947 28.4091L5.93406 13.1035C5.81417 13.0027 5.67742 12.9288 5.53164 12.8863C5.38585 12.8437 5.23388 12.8331 5.0844 12.8553C4.93493 12.8774 4.79087 12.9318 4.66046 13.0153C4.53005 13.0987 4.41583 13.2097 4.32434 13.3419C4.23284 13.474 4.16586 13.6247 4.12721 13.7853C4.08857 13.946 4.07901 14.1135 4.0991 14.2782C4.11918 14.4429 4.16851 14.6017 4.24427 14.7454C4.32003 14.8891 4.42073 15.015 4.54063 15.1158L18.8195 27.1519L4.69758 38.8801C4.57592 38.9801 4.47333 39.1055 4.39566 39.2492C4.31798 39.3929 4.26675 39.552 4.24489 39.7175C4.22303 39.883 4.23097 40.0517 4.26824 40.2138C4.30552 40.376 4.37141 40.5284 4.46215 40.6625C4.55289 40.7965 4.6667 40.9096 4.79709 40.9952C4.92748 41.0808 5.07189 41.1373 5.22208 41.1614C5.37227 41.1854 5.52529 41.1767 5.67241 41.1356C5.81954 41.0945 5.95787 41.0219 6.07953 40.9219L20.7145 28.7466L22.6974 30.4341C23.1598 30.8242 23.7249 31.0376 24.3071 31.0422C24.8894 31.0467 25.4572 30.8422 25.9245 30.4594L28.007 28.7466L42.8142 40.9219C42.9351 41.0214 43.0726 41.0936 43.2188 41.1345C43.3651 41.1754 43.5172 41.1841 43.6665 41.1602C43.8158 41.1363 43.9594 41.0803 44.089 40.9952C44.2186 40.9102 44.3318 40.7978 44.422 40.6646C44.5123 40.5313 44.5778 40.3798 44.6149 40.2187C44.652 40.0575 44.6599 39.8899 44.6383 39.7253C44.6166 39.5608 44.5657 39.4026 44.4885 39.2597C44.4114 39.1169 44.3094 38.9922 44.1885 38.8927L29.9249 27.1477L44.4527 15.1876C44.6936 14.987 44.8532 14.69 44.8969 14.3607C44.9406 14.0315 44.8649 13.6965 44.6862 13.4283V13.4283Z" fill="black"/>
<path d="M43.2578 8.01562H5.74219C4.21926 8.01562 2.75872 8.68234 1.68185 9.86909C0.604979 11.0558 0 12.6654 0 14.3438L0 39.6562C0 41.3346 0.604979 42.9442 1.68185 44.1309C2.75872 45.3177 4.21926 45.9844 5.74219 45.9844H43.2578C44.7807 45.9844 46.2413 45.3177 47.3182 44.1309C48.395 42.9442 49 41.3346 49 39.6562V14.3438C49 12.6654 48.395 11.0558 47.3182 9.86909C46.2413 8.68234 44.7807 8.01562 43.2578 8.01562ZM46.7031 39.6562C46.7031 40.6632 46.3401 41.629 45.694 42.341C45.0479 43.0531 44.1716 43.4531 43.2578 43.4531H5.74219C4.82843 43.4531 3.95211 43.0531 3.30598 42.341C2.65986 41.629 2.29688 40.6632 2.29688 39.6562V14.3438C2.29687 13.3368 2.65986 12.371 3.30598 11.659C3.95211 10.9469 4.82843 10.5469 5.74219 10.5469H43.2578C44.1716 10.5469 45.0479 10.9469 45.694 11.659C46.3401 12.371 46.7031 13.3368 46.7031 14.3438V39.6562Z" fill="black"/>
</g>
<defs>
<clipPath id="clip0_1331_34">
<rect width="49" height="54" fill="white"/>
</clipPath>
</defs>
</svg>
