<svg width="43" height="42" viewBox="0 0 43 42" fill="none" xmlns="http://www.w3.org/2000/svg">
<path d="M32.25 1.24048C27.7713 1.24048 24.3823 3.80776 21.5 6.49048C18.7534 3.64367 15.2287 1.24048 10.75 1.24048C4.44242 1.24048 0 6.53769 0 12.3141C0 15.4129 1.29942 17.6455 2.72242 19.7415L19.4293 39.3056C21.3052 41.2442 21.6586 41.2442 23.5344 39.3056L40.2788 19.7415C41.9518 17.6455 43 15.4129 43 12.3141C43 6.53776 38.5575 1.24048 32.25 1.24048ZM37.625 19.1982L21.5 37.9905L5.375 19.1207C3.44675 16.5023 2.6875 14.7357 2.6875 12.3141C2.6875 7.80168 5.98642 3.73948 10.75 3.70139C14.6684 3.66989 19.1095 7.5785 21.5 10.5251C23.8274 7.68089 28.3316 3.70139 32.25 3.70139C36.8873 3.70139 40.3125 7.80168 40.3125 12.3141C40.3125 14.7357 39.7118 16.6335 37.625 19.1982Z" fill="#F27400"/>
</svg>
