<svg width="24" height="24" viewBox="0 0 24 24" fill="none" xmlns="http://www.w3.org/2000/svg">
<g clip-path="url(#clip0_1426_96)">
<path d="M18 0.70874C15.5003 0.70874 13.6087 2.17576 12 3.70874C10.467 2.082 8.49977 0.70874 6 0.70874C2.47949 0.70874 0 3.73572 0 7.03651C0 8.80725 0.725255 10.083 1.51949 11.2807L10.8442 22.4602C11.8913 23.568 12.0885 23.568 13.1355 22.4602L22.4812 11.2807C23.415 10.083 24 8.80725 24 7.03651C24 3.73576 21.5205 0.70874 18 0.70874ZM21 10.9703L12 21.7087L3 10.926C1.92376 9.42976 1.5 8.42027 1.5 7.03651C1.5 4.458 3.34126 2.13674 6 2.11498C8.18702 2.09698 10.6658 4.33047 12 6.01423C13.299 4.38898 15.813 2.11498 18 2.11498C20.5882 2.11498 22.5 4.458 22.5 7.03651C22.5 8.42027 22.1647 9.50474 21 10.9703Z" fill="black"/>
</g>
<defs>
<clipPath id="clip0_1426_96">
<rect width="24" height="24" fill="white"/>
</clipPath>
</defs>
</svg>
