<svg width="48" height="36" viewBox="0 0 48 36" fill="none" xmlns="http://www.w3.org/2000/svg">
<path d="M26.3839 26.7399L23.9993 13.0909L21.6164 26.7399C19.9759 27.5597 18.8564 29.2009 18.8564 31.0909C18.8564 33.8024 21.1587 36 23.9993 36C26.8399 36 29.1422 33.8024 29.1422 31.0909C29.1422 29.2009 28.0244 27.5597 26.3839 26.7399Z" fill="#030104"/>
<path d="M24 0C10.7451 0 0 10.2567 0 22.9091C0 26.2784 0.761143 29.4775 2.12914 32.3558C3.06171 31.8453 4.09543 31.3658 5.21486 30.924C4.06629 28.476 3.42857 25.7645 3.42857 22.9091C3.42857 12.0649 12.6394 3.27273 24 3.27273C35.3606 3.27273 44.5714 12.0649 44.5714 22.9091C44.5714 25.7645 43.9337 28.476 42.7851 30.924C43.9046 31.3658 44.9383 31.8436 45.8709 32.3558C47.2406 29.4775 48 26.2784 48 22.9091C48 10.2567 37.2549 0 24 0Z" fill="#030104"/>
<path d="M6.56162 30.0714L5.50391 26.9607L12.0268 24.9398L13.0845 28.0521L6.56162 30.0714ZM15.5359 14.6111L11.5073 9.31578L14.2845 7.39142L18.313 12.6883L15.5359 14.6111ZM22.285 4.90906H25.7136V11.4545H22.285V4.90906ZM12.025 20.9471L5.50391 18.9245L6.56505 15.8121L13.0862 17.8347L12.025 20.9471ZM35.9702 20.9454L34.9125 17.8331L41.437 15.8121L42.4948 18.9229L35.9702 20.9454ZM29.6839 12.6867L33.7159 7.39306L36.4913 9.31742L32.4611 14.6127L29.6839 12.6867ZM41.437 30.0714L34.9142 28.0505L35.9719 24.9398L42.4948 26.9607L41.437 30.0714Z" fill="#030104"/>
</svg>
