<svg width="32" height="32" viewBox="0 0 32 32" fill="none" xmlns="http://www.w3.org/2000/svg">
<path d="M14.9304 1H13.8604V8.5H14.9304V1Z" fill="black"/>
<path d="M22.43 1H20.29V8.5H22.43V1Z" fill="black"/>
<path d="M12.7803 1H9.57031V8.5H12.7803V1Z" fill="black"/>
<path d="M19.21 1H16V8.37H19.21V1Z" fill="black"/>
<path d="M9.8402 18.14C11.0221 18.14 11.9802 17.1819 11.9802 16C11.9802 14.8181 11.0221 13.86 9.8402 13.86C8.65831 13.86 7.7002 14.8181 7.7002 16C7.7002 17.1819 8.65831 18.14 9.8402 18.14Z" fill="black"/>
<path d="M23.5 12.79H20.29V16H23.5V12.79Z" fill="black"/>
<path d="M5.29006 9.56995V28.3199C5.28869 28.6748 5.35807 29.0264 5.49415 29.3541C5.63023 29.6819 5.83028 29.9792 6.0826 30.2287C6.33492 30.4782 6.63445 30.675 6.96368 30.8074C7.29291 30.9398 7.64523 31.0053 8.00006 30.9999H24.0001C24.3515 30.9999 24.6995 30.9306 25.0241 30.7958C25.3487 30.6609 25.6435 30.4634 25.8916 30.2144C26.1396 29.9654 26.3361 29.6699 26.4697 29.3448C26.6033 29.0197 26.6714 28.6714 26.6701 28.3199V9.56995H5.29006ZM24.5701 17.0699H22.4301V22.1599C22.4324 22.2937 22.3821 22.4229 22.2901 22.5199L20.2201 24.7499C20.2593 24.9579 20.2827 25.1685 20.2901 25.3799C20.2901 26.5177 19.8381 27.6089 19.0335 28.4134C18.229 29.218 17.1378 29.6699 16.0001 29.6699C14.8623 29.6699 13.7711 29.218 12.9666 28.4134C12.162 27.6089 11.7101 26.5177 11.7101 25.3799C11.7196 25.189 11.7397 24.9987 11.7701 24.8099L9.46006 22.5399C9.35947 22.4388 9.3021 22.3026 9.30006 22.1599V19.1599C8.50709 19.0246 7.79383 18.5965 7.30148 17.9603C6.80914 17.3241 6.57361 16.5263 6.64152 15.7247C6.70942 14.9232 7.07581 14.1763 7.66816 13.632C8.2605 13.0877 9.03562 12.7857 9.84006 12.7857C10.6445 12.7857 11.4196 13.0877 12.012 13.632C12.6043 14.1763 12.9707 14.9232 13.0386 15.7247C13.1065 16.5263 12.871 17.3241 12.3786 17.9603C11.8863 18.5965 11.173 19.0246 10.3801 19.1599V21.9399L12.0901 23.6299C12.3912 22.9608 12.8594 22.3804 13.4495 21.9443C14.0397 21.5083 14.732 21.2313 15.4601 21.1399V12.7899C15.4601 12.6467 15.517 12.5094 15.6182 12.4081C15.7195 12.3068 15.8568 12.2499 16.0001 12.2499C16.1433 12.2499 16.2806 12.3068 16.3819 12.4081C16.4832 12.5094 16.5401 12.6467 16.5401 12.7899V21.1399C17.2532 21.2327 17.9317 21.5028 18.5135 21.9256C19.0952 22.3484 19.5616 22.9103 19.8701 23.5599L21.3601 21.9999V17.0699H19.2101V11.7099H24.5701V17.0699Z" fill="black"/>
<path d="M16 28.59C17.7729 28.59 19.21 27.1529 19.21 25.38C19.21 23.6072 17.7729 22.17 16 22.17C14.2272 22.17 12.79 23.6072 12.79 25.38C12.79 27.1529 14.2272 28.59 16 28.59Z" fill="black"/>
</svg>
