<svg width="32" height="32" viewBox="0 0 32 32" fill="none" xmlns="http://www.w3.org/2000/svg">
<g clip-path="url(#clip0_1587_73)">
<path d="M15.517 23.5813C15.4814 23.5833 15.4485 23.5781 15.415 23.5719C15.3072 23.5528 15.2041 23.5018 15.1212 23.4188L5.96812 14.2658C5.86408 14.1617 5.80566 14.0206 5.80566 13.8734C5.80566 13.7263 5.8641 13.5852 5.96819 13.4811L8.09773 11.3518C8.31443 11.1352 8.66581 11.1352 8.8822 11.3518L15.5152 17.9847L28.4554 5.04442C28.6721 4.8278 29.0234 4.8278 29.24 5.04442L31.3695 7.17392C31.4736 7.27794 31.532 7.41911 31.532 7.56622C31.532 7.71333 31.4736 7.85443 31.3696 7.95845L15.9092 23.4188C15.8052 23.5228 15.6641 23.5813 15.517 23.5813ZM7.14493 13.8734L15.5152 22.2437L30.1927 7.56624L28.8477 6.2213L15.9075 19.1615C15.6908 19.3782 15.3395 19.3782 15.123 19.1615L8.48997 12.5286L7.14493 13.8734Z" fill="#676767"/>
<path d="M30.0863 11.7808C30.4876 13.1179 30.7043 14.5341 30.7043 16.0001C30.7043 24.1082 24.1078 30.7046 15.9996 30.7046C7.8915 30.7046 1.29508 24.1082 1.29508 16.0001C1.29508 7.89194 7.8915 1.29542 15.9996 1.29542C19.7896 1.29542 23.2491 2.73695 25.8592 5.10026L26.6443 4.3151C23.8326 1.75137 20.0955 0.185913 15.9996 0.185913C7.2797 0.185913 0.185547 7.28015 0.185547 16.0001C0.185547 24.72 7.2797 31.8141 15.9996 31.8141C24.7196 31.8141 31.8138 24.7201 31.8138 16.0001C31.8138 14.2157 31.5163 12.4995 30.969 10.8981L30.0863 11.7808Z" fill="#676767"/>
</g>
<defs>
<clipPath id="clip0_1587_73">
<rect width="32" height="32" fill="white"/>
</clipPath>
</defs>
</svg>
