<svg width="70" height="69" viewBox="0 0 70 69" fill="none" xmlns="http://www.w3.org/2000/svg">
<path d="M34.9542 35.8303C21.0313 35.8562 9.51371 46.7218 8.81814 60.4531C8.79962 60.8428 8.86174 61.2321 9.00072 61.5974C9.1397 61.9626 9.35263 62.2962 9.62654 62.5777C9.90046 62.8593 10.2296 63.083 10.594 63.2351C10.9584 63.3873 11.3504 63.4648 11.7462 63.4629H58.2761C58.67 63.4618 59.0595 63.382 59.4212 63.2285C59.7829 63.075 60.1094 62.8508 60.3809 62.5696C60.6523 62.2884 60.8632 61.9558 61.0008 61.5921C61.1384 61.2283 61.1998 60.8409 61.1814 60.4531C60.485 46.7044 48.9403 35.8318 34.9998 35.8303H34.9542Z" fill="#F27400"/>
<path d="M35.0009 5.53735C27.6205 5.53735 21.6036 11.4962 21.6035 18.7793C21.6035 26.0623 27.6205 32.0417 35.0009 32.0417C42.3813 32.0417 48.4191 26.0623 48.419 18.7793C48.419 11.4962 42.3813 5.53735 35.0009 5.53735V5.53735Z" fill="#F27400"/>
</svg>
