<svg width="29" height="26" viewBox="0 0 29 26" fill="none" xmlns="http://www.w3.org/2000/svg">
<path d="M7.25007 3.45166H1.81258C0.810691 3.45166 0 4.22519 0 5.17735V24.1606C0 25.1144 0.810691 25.8861 1.81258 25.8861H7.25013C8.25196 25.8861 9.06253 25.1144 9.06253 24.1606V5.17735C9.06247 4.22519 8.2519 3.45166 7.25007 3.45166ZM2.71884 20.709C2.21786 20.709 1.81258 20.3231 1.81258 19.8458C1.81258 19.3691 2.21786 18.9832 2.71884 18.9832C3.21969 18.9832 3.62498 19.3691 3.62498 19.8458C3.62498 20.3231 3.21969 20.709 2.71884 20.709ZM7.25007 10.3545H1.81258V8.62891H7.25013V10.3545H7.25007ZM7.25007 6.9031H1.81258V5.17735H7.25013V6.9031H7.25007Z" fill="black"/>
<path d="M19.0315 22.4345V20.709H13.5938V22.4345C12.5922 22.4345 11.7812 23.2066 11.7812 24.1605H20.8438C20.8438 23.2066 20.0332 22.4345 19.0315 22.4345Z" fill="black"/>
<path d="M27.1877 0H5.43758C4.43575 0 3.625 0.773532 3.625 1.72581H5.43758H10.8751H27.1878V15.5316H10.8751V18.9831H27.1877C28.1894 18.9831 29 18.2114 29 17.257V1.72575C29 0.773475 28.1893 0 27.1877 0ZM16.3126 18.1203C15.8117 18.1203 15.4064 17.7346 15.4064 17.257C15.4064 16.7803 15.8117 16.3945 16.3126 16.3945C16.8137 16.3945 17.2189 16.7803 17.2189 17.257C17.2189 17.7346 16.8136 18.1203 16.3126 18.1203Z" fill="black"/>
</svg>
