<svg width="31" height="27" viewBox="0 0 31 27" fill="none" xmlns="http://www.w3.org/2000/svg">
<path fill-rule="evenodd" clip-rule="evenodd" d="M7.94809 15.7757V14.7469C7.94809 14.1789 8.48225 13.718 9.1404 13.718C9.79855 13.718 10.3327 14.1789 10.3327 14.7469V15.7757H11.525C12.1832 15.7757 12.7173 16.2366 12.7173 16.8046C12.7173 17.3725 12.1832 17.8334 11.525 17.8334H10.3327V18.8622C10.3327 19.4302 9.79855 19.8911 9.1404 19.8911C8.48225 19.8911 7.94809 19.4302 7.94809 18.8622V17.8334H6.75578C6.09763 17.8334 5.56348 17.3725 5.56348 16.8046C5.56348 16.2366 6.09763 15.7757 6.75578 15.7757H7.94809Z" fill="black"/>
<path fill-rule="evenodd" clip-rule="evenodd" d="M20.667 14.7469C20.667 15.3148 21.2011 15.7757 21.8593 15.7757C22.5175 15.7757 23.0516 15.3148 23.0516 14.7469C23.0516 14.1789 22.5175 13.718 21.8593 13.718C21.2011 13.718 20.667 14.1789 20.667 14.7469Z" fill="black"/>
<path fill-rule="evenodd" clip-rule="evenodd" d="M23.0518 16.8045C23.0518 17.3724 23.5859 17.8333 24.2441 17.8333C24.9022 17.8333 25.4364 17.3724 25.4364 16.8045C25.4364 16.2366 24.9022 15.7756 24.2441 15.7756C23.5859 15.7756 23.0518 16.2366 23.0518 16.8045Z" fill="black"/>
<path fill-rule="evenodd" clip-rule="evenodd" d="M18.2822 16.8045C18.2822 17.3724 18.8164 17.8333 19.4745 17.8333C20.1327 17.8333 20.6668 17.3724 20.6668 16.8045C20.6668 16.2366 20.1327 15.7756 19.4745 15.7756C18.8164 15.7756 18.2822 16.2366 18.2822 16.8045Z" fill="black"/>
<path fill-rule="evenodd" clip-rule="evenodd" d="M20.667 18.8621C20.667 19.43 21.2011 19.8909 21.8593 19.8909C22.5175 19.8909 23.0516 19.43 23.0516 18.8621C23.0516 18.2942 22.5175 17.8333 21.8593 17.8333C21.2011 17.8333 20.667 18.2942 20.667 18.8621Z" fill="black"/>
<path fill-rule="evenodd" clip-rule="evenodd" d="M4.76923 1.02885C4.76923 0.460923 5.30338 0 5.96154 0C6.61969 0 7.15385 0.460923 7.15385 1.02885V1.44999C7.15385 2.28815 7.85492 3.00149 8.81195 3.13867C10.1314 3.32935 11.7228 3.55844 13.0423 3.74774C15.1487 4.05091 16.6923 5.62299 16.6923 7.46668V7.54487H23.4487C27.6186 7.54487 31 10.4627 31 14.0609C31 16.0349 31 18.26 31 20.234C31 23.8322 27.6186 26.75 23.4487 26.75C23.1244 26.75 22.8128 26.75 22.5171 26.75C20.7621 26.75 19.0785 26.1478 17.8369 25.0764C17.6795 24.9406 17.5222 24.8048 17.3711 24.6745C16.8751 24.2465 16.2011 24.0064 15.5 24.0064C14.7989 24.0064 14.1249 24.2465 13.6289 24.6745C13.4778 24.8048 13.3205 24.9406 13.1631 25.0764C11.9215 26.1478 10.2379 26.75 8.48287 26.75C8.18718 26.75 7.87559 26.75 7.55128 26.75C3.38138 26.75 0 23.8322 0 20.234C0 18.26 0 16.0349 0 14.0609C0 10.4627 3.38138 7.54487 7.55128 7.54487H14.3077V7.46668C14.3077 6.62851 13.6066 5.91518 12.6496 5.778C11.3301 5.58732 9.73877 5.35823 8.41928 5.16892C6.31287 4.86576 4.76923 3.29368 4.76923 1.44999V1.02885ZM23.4487 9.60256C26.3023 9.60256 28.6154 11.5985 28.6154 14.0609C28.6154 16.0349 28.6154 18.26 28.6154 20.234C28.6154 22.6963 26.3023 24.6923 23.4487 24.6923C23.1244 24.6923 22.8128 24.6923 22.5171 24.6923C21.3948 24.6923 20.3169 24.3068 19.5221 23.6223C19.3647 23.4865 19.2073 23.3507 19.0563 23.2204C18.1135 22.4055 16.8338 21.9487 15.5 21.9487C14.1662 21.9487 12.8865 22.4055 11.9437 23.2204C11.7927 23.3507 11.6353 23.4865 11.4779 23.6223C10.6831 24.3068 9.60523 24.6923 8.48287 24.6923C8.18718 24.6923 7.87559 24.6923 7.55128 24.6923C4.69769 24.6923 2.38462 22.6963 2.38462 20.234V14.0609C2.38462 11.5985 4.69769 9.60256 7.55128 9.60256H23.4487Z" fill="black"/>
</svg>
