<svg width="56" height="41" viewBox="0 0 56 41" fill="none" xmlns="http://www.w3.org/2000/svg">
<path d="M55.8724 31.1712C55.8705 31.161 55.8686 31.1508 55.8667 31.1406L52.0515 11.5024C52.0487 11.4877 52.044 11.4738 52.0408 11.4592C51.4505 8.24582 49.7498 5.3401 47.2341 3.24674C44.7184 1.15337 41.5467 0.00461353 38.2698 0H38.2643L17.7332 0.0604177C14.4394 0.0538965 11.2493 1.20785 8.72616 3.3185C6.203 5.42915 4.50909 8.36074 3.94356 11.5956C3.9406 11.6124 3.93787 11.6294 3.93536 11.6462L0.133426 31.1392C0.131375 31.1499 0.129438 31.1606 0.127501 31.1712C-0.182524 32.925 0.0762709 34.7316 0.866305 36.3287C1.65634 37.9259 2.93648 39.2304 4.52083 40.0528C6.10519 40.8752 7.91127 41.1728 9.67681 40.9023C11.4423 40.6317 13.0754 39.8072 14.3389 38.5484C14.3727 38.5148 14.4051 38.4801 14.436 38.4443L23.9394 27.9709L32.071 27.9386L41.561 38.4409C41.5927 38.4777 41.626 38.5135 41.661 38.5484C42.9244 39.8074 44.5575 40.6321 46.3231 40.9027C48.0887 41.1734 49.8949 40.8758 51.4793 40.0534C53.0637 39.2309 54.3439 37.9263 55.1339 36.329C55.9239 34.7318 56.1826 32.925 55.8724 31.1712L55.8724 31.1712ZM22.3988 15.8783H20.5322V17.7392C20.5322 18.2328 20.3355 18.7061 19.9854 19.0551C19.6354 19.4041 19.1606 19.6002 18.6655 19.6002C18.1704 19.6002 17.6956 19.4041 17.3455 19.0551C16.9955 18.7061 16.7988 18.2328 16.7988 17.7392V15.8783H14.9321C14.4371 15.8783 13.9623 15.6822 13.6122 15.3333C13.2621 14.9843 13.0655 14.5109 13.0655 14.0174C13.0655 13.5238 13.2621 13.0505 13.6122 12.7015C13.9623 12.3525 14.4371 12.1565 14.9321 12.1565H16.7988V10.2955C16.7988 9.80198 16.9955 9.32864 17.3455 8.97965C17.6956 8.63066 18.1704 8.4346 18.6655 8.4346C19.1606 8.4346 19.6354 8.63066 19.9854 8.97965C20.3355 9.32864 20.5322 9.80198 20.5322 10.2955V12.1565H22.3988C22.8939 12.1565 23.3687 12.3525 23.7188 12.7015C24.0688 13.0505 24.2655 13.5238 24.2655 14.0174C24.2655 14.5109 24.0688 14.9843 23.7188 15.3333C23.3687 15.6822 22.8939 15.8783 22.3988 15.8783ZM31.7322 14.0174C31.7322 13.5238 31.9289 13.0505 32.2789 12.7015C32.629 12.3525 33.1038 12.1565 33.5989 12.1565H41.0656C41.5606 12.1565 42.0354 12.3525 42.3855 12.7015C42.7356 13.0505 42.9322 13.5238 42.9322 14.0174C42.9322 14.5109 42.7356 14.9843 42.3855 15.3333C42.0354 15.6822 41.5606 15.8783 41.0656 15.8783H33.5989C33.1038 15.8783 32.629 15.6822 32.2789 15.3333C31.9289 14.9843 31.7322 14.5109 31.7322 14.0174ZM48.4103 37.2072C47.6803 37.335 46.9302 37.2878 46.2219 37.0696C45.5137 36.8514 44.8677 36.4685 44.3372 35.9524L37.0778 27.9187L38.2698 27.9139C40.6499 27.9125 42.9904 27.3063 45.0702 26.1524C47.1499 24.9985 48.9003 23.3351 50.156 21.3193L52.1983 31.8318C52.4076 33.045 52.1267 34.2914 51.4169 35.2987C50.7071 36.306 49.6261 36.9922 48.4103 37.2072V37.2072Z" fill="black"/>
</svg>
