<svg width="78" height="49" viewBox="0 0 78 49" fill="none" xmlns="http://www.w3.org/2000/svg">
<path d="M55.4117 31.042C56.6901 32.014 58.3677 32.625 60.2242 32.625C64.2096 32.625 67.443 29.8955 67.443 26.5312C67.443 23.167 64.2096 20.4375 60.2242 20.4375C58.3677 20.4375 56.6901 21.0485 55.4117 22.0206C54.1334 21.0487 52.4557 20.4375 50.5992 20.4375C46.6139 20.4375 43.3805 23.167 43.3805 26.5312C43.3805 29.8955 46.6139 32.625 50.5992 32.625C52.4557 32.625 54.1334 32.0141 55.4117 31.042Z" fill="#F27400"/>
<path d="M72.2555 0.125H14.5055C11.8454 0.125 9.69299 1.94208 9.69299 4.1875V16.375H14.5055H38.568H72.2555V36.6875H38.568V40.75H72.2555C74.9156 40.75 77.068 38.933 77.068 36.6875V4.1875C77.068 1.94208 74.9156 0.125 72.2555 0.125ZM72.2555 8.25H14.5055V4.1875H72.2555V8.25Z" fill="#F27400"/>
<path d="M16.9117 20.4375C7.60632 20.4375 0.0679932 26.801 0.0679932 34.6562C0.0679932 42.5115 7.60632 48.875 16.9117 48.875C26.2172 48.875 33.7555 42.5115 33.7555 34.6562C33.7555 26.801 26.2172 20.4375 16.9117 20.4375ZM28.943 36.6875H19.318V44.8125H14.5055V36.6875H4.88049V32.625H14.5055V24.5H19.318V32.625H28.943V36.6875Z" fill="#F27400"/>
</svg>
