<svg width="61" height="61" viewBox="0 0 61 61" fill="none" xmlns="http://www.w3.org/2000/svg">
<g clip-path="url(#clip0_1222_230)">
<path d="M30.5 20.9688C32.6056 20.9688 34.3125 19.2618 34.3125 17.1562C34.3125 15.0507 32.6056 13.3438 30.5 13.3438C28.3944 13.3438 26.6875 15.0507 26.6875 17.1562C26.6875 19.2618 28.3944 20.9688 30.5 20.9688Z" fill="#F27400"/>
<path d="M32.4063 32.4062V28.5938C32.4063 28.2125 32.4063 28.0219 32.2156 27.6406C31.8344 27.0687 31.2625 26.6875 30.5 26.6875C29.7375 26.6875 29.1656 27.0687 28.7844 27.6406C28.5938 27.8313 28.5938 28.2125 28.5938 28.5938V32.4062C28.5938 35.8375 27.6406 39.4594 26.8781 42.8906C26.6875 43.4625 26.6875 44.0344 26.8781 44.7969C27.2594 46.1312 28.4031 47.275 29.7375 47.4656C29.9281 47.4656 30.3094 47.4656 30.5 47.4656C30.6906 47.4656 31.0719 47.4656 31.2625 47.4656C32.5969 47.275 33.7406 46.1312 34.1219 44.7969C34.3125 44.0344 34.3125 43.4625 34.1219 42.8906C33.3594 39.4594 32.4063 35.8375 32.4063 32.4062Z" fill="#F27400"/>
<path d="M61 30.5C61 13.725 47.275 0 30.5 0C13.725 0 0 13.725 0 30.5C0 47.275 13.725 61 30.5 61C41.7469 61 47.275 61 50.7063 58.5219C53.5656 56.425 54.9 53.375 58.9031 41.5562C60.2375 38.125 61 34.5031 61 30.5V30.5ZM56.6156 36.2188C53.9469 45.5594 48.6094 47.275 44.7969 49.9438C39.8406 53.375 35.2656 57.3781 30.5 57.3781C15.8219 57.3781 3.8125 45.3688 3.8125 30.6906C3.8125 16.0125 15.8219 4.00312 30.5 4.00312C45.1781 4.00312 57.1875 16.0125 57.1875 30.6906C57.1875 32.4063 56.9969 34.3125 56.6156 36.2188V36.2188Z" fill="#F27400"/>
</g>
<defs>
<clipPath id="clip0_1222_230">
<rect width="61" height="61" fill="white"/>
</clipPath>
</defs>
</svg>
