<svg width="58" height="53" viewBox="0 0 58 53" fill="none" xmlns="http://www.w3.org/2000/svg">
<path d="M57.2074 26.6036C57.2074 30.206 57.1281 33.8186 57.2301 37.421C57.4 43.7976 53.016 48.7249 47.4313 50.9194C45.1883 51.7993 42.832 52.2651 40.3965 52.2651C32.7727 52.2755 25.1375 52.3686 17.5137 52.2341C11.7703 52.1306 7.04648 49.936 3.65937 45.6091C1.88086 43.3317 1.03125 40.7438 1.03125 37.9386C1.03125 30.5165 1.03125 23.1048 1.03125 15.6827C1.03125 9.62705 4.25977 5.39326 9.9918 2.63974C12.484 1.44931 15.1914 0.942085 18.0121 0.931733C25.4094 0.931733 32.818 0.890327 40.2152 0.952436C45.9586 0.993843 50.7504 3.00205 54.2848 7.22548C56.2559 9.58564 57.2074 12.2977 57.2074 15.279C57.2074 19.047 57.2074 22.8253 57.2074 26.6036ZM5.21133 26.6036C5.21133 30.4026 5.21133 34.1913 5.21133 37.9903C5.21133 39.688 5.6418 41.2821 6.60469 42.721C9.13086 46.4993 12.9484 48.3419 17.6836 48.4144C25.2848 48.5179 32.8973 48.4558 40.5098 48.4351C42.3789 48.4351 44.1914 48.0831 45.8793 47.3481C50.4785 45.3399 53.05 42.1413 53.0273 37.3382C52.982 29.9886 53.016 22.639 53.016 15.2894C53.016 13.2087 52.3703 11.304 51.0223 9.62705C48.4168 6.40771 44.8145 4.82392 40.5098 4.78251C32.9199 4.6997 25.3301 4.75146 17.7402 4.76181C16.1203 4.76181 14.557 5.06201 13.0391 5.57958C8.87031 6.99775 4.99609 10.5897 5.17734 15.8794C5.31328 19.461 5.21133 23.0323 5.21133 26.6036Z" fill="white"/>
<path d="M29.1813 37.5762C21.8746 37.5762 15.984 32.2555 15.9727 25.6305C15.9613 19.109 21.8973 13.7676 29.1586 13.7676C36.4426 13.7572 42.3559 19.0883 42.3672 25.6615C42.3672 32.2244 36.4653 37.5658 29.1813 37.5762ZM29.1813 33.7461C34.1543 33.7461 38.1871 30.1127 38.1758 25.6408C38.1645 21.2104 34.1317 17.5873 29.1813 17.5873C24.2082 17.5873 20.1527 21.2 20.1527 25.6615C20.1641 30.1334 24.2082 33.7565 29.1813 33.7461Z" fill="white"/>
<path d="M43.897 10.1445C45.4262 10.1445 46.6723 11.335 46.6723 12.7945C46.661 14.2541 45.4036 15.4342 43.8743 15.4238C42.3677 15.4135 41.1329 14.2334 41.1329 12.8049C41.1216 11.3453 42.3677 10.1445 43.897 10.1445Z" fill="white"/>
</svg>
