<svg width="32" height="34" viewBox="0 0 32 34" fill="none" xmlns="http://www.w3.org/2000/svg">
<path d="M16.0745 18.1106C13.9753 18.1106 11.9233 17.5796 10.1779 16.5845C8.43252 15.5895 7.07216 14.1753 6.26885 12.5206C5.46554 10.866 5.25535 9.04528 5.66488 7.28872C6.0744 5.53216 7.08524 3.91866 8.56957 2.65225C10.0539 1.38584 11.945 0.523401 14.0039 0.173999C16.0627 -0.175402 18.1967 0.0039235 20.1361 0.689299C22.0754 1.37467 23.733 2.53532 24.8993 4.02446C26.0655 5.5136 26.688 7.26435 26.688 9.05532C26.688 11.4569 25.5698 13.7602 23.5793 15.4584C21.5889 17.1566 18.8893 18.1106 16.0745 18.1106ZM16.0745 2.26383C14.5001 2.26383 12.9611 2.66215 11.652 3.40841C10.343 4.15466 9.32273 5.21535 8.72025 6.45633C8.11777 7.69732 7.96013 9.06286 8.26727 10.3803C8.57442 11.6977 9.33254 12.9078 10.4458 13.8576C11.559 14.8074 12.9774 15.4543 14.5215 15.7163C16.0656 15.9784 17.6661 15.8439 19.1207 15.3298C20.5752 14.8158 21.8184 13.9453 22.6931 12.8285C23.5677 11.7116 24.0346 10.3986 24.0346 9.05532C24.0346 7.25411 23.1959 5.52667 21.7031 4.25302C20.2103 2.97936 18.1856 2.26383 16.0745 2.26383Z" fill="#E9E9E9"/>
<path d="M25.3614 33.9575H6.78774C5.02844 33.9575 3.3412 33.3612 2.09719 32.2998C0.853176 31.2385 0.154297 29.7989 0.154297 28.2979V23.7702C0.154337 23.5738 0.214294 23.3808 0.328274 23.2101C0.442253 23.0394 0.60633 22.897 0.804374 22.7968L7.43782 19.4011C7.73711 19.2857 8.07593 19.2691 8.38873 19.3545C8.70152 19.44 8.96605 19.6214 9.13113 19.8636C9.29621 20.1058 9.3501 20.3917 9.28238 20.6659C9.21465 20.9401 9.03013 21.1831 8.76451 21.348L2.80768 24.4154V28.2979C2.80768 29.1985 3.227 30.0622 3.97341 30.6991C4.71982 31.3359 5.73216 31.6937 6.78774 31.6937H25.3614C26.417 31.6937 27.4293 31.3359 28.1757 30.6991C28.9221 30.0622 29.3415 29.1985 29.3415 28.2979V24.4154L23.3581 21.348C23.1889 21.2827 23.0377 21.1879 22.9142 21.0697C22.7906 20.9515 22.6976 20.8125 22.641 20.6616C22.5844 20.5108 22.5655 20.3515 22.5856 20.194C22.6056 20.0366 22.6642 19.8845 22.7575 19.7476C22.8508 19.6106 22.9768 19.4919 23.1272 19.3992C23.2777 19.3064 23.4493 19.2416 23.6309 19.2089C23.8125 19.1762 24.0002 19.1765 24.1817 19.2096C24.3633 19.2427 24.5346 19.3079 24.6848 19.4011L31.3182 22.7968C31.5212 22.8941 31.6906 23.0353 31.8094 23.2062C31.9281 23.3771 31.9921 23.5716 31.9948 23.7702V28.2979C31.9948 29.7989 31.296 31.2385 30.0519 32.2998C28.8079 33.3612 27.1207 33.9575 25.3614 33.9575Z" fill="#E9E9E9"/>
</svg>
