<svg width="31" height="31" viewBox="0 0 31 31" fill="none" xmlns="http://www.w3.org/2000/svg">
<path d="M20.7081 19.2509L20.5531 19.4059L18.2901 17.1429C19.6231 15.5619 20.4291 13.5159 20.4291 11.2839C20.4291 8.89692 19.4681 6.57192 17.7631 4.86692C16.0581 3.13092 13.7021 2.16992 11.3151 2.16992C6.29306 2.16992 2.23206 6.26192 2.23206 11.2839C2.23206 13.7329 3.19306 16.0269 4.92906 17.7629C6.63406 19.4679 8.89706 20.3979 11.2841 20.3979C11.3151 20.3979 11.3151 20.3979 11.3461 20.3979C13.5781 20.3979 15.6241 19.5919 17.2051 18.2589L19.4681 20.5219L19.2201 20.7389C18.9101 21.0489 18.9101 21.5449 19.2201 21.8239L25.6681 28.2719C26.3811 28.9849 27.5591 28.9849 28.2721 28.2719C28.9851 27.5589 28.9851 26.3809 28.2721 25.6679L21.7931 19.2509C21.4831 18.9409 21.0181 18.9409 20.7081 19.2509ZM11.3151 18.8169H11.2841C9.30006 18.8169 7.40906 18.0419 6.01406 16.6469C4.58806 15.2209 3.78206 13.2989 3.78206 11.2839C3.78206 7.09892 7.16106 3.71992 11.3151 3.71992C13.2991 3.71992 15.2211 4.52592 16.6471 5.95192C18.0731 7.37792 18.8791 9.29992 18.8791 11.2839C18.8791 15.4379 15.5001 18.8169 11.3151 18.8169Z" fill="black"/>
<path d="M5.20801 11.2839C5.20801 11.9349 5.30101 12.5549 5.48701 13.1749C5.64201 13.6089 6.13801 13.8259 6.57201 13.6399C6.91301 13.4849 7.09901 13.0819 6.97501 12.7099C6.82001 12.2449 6.75801 11.7799 6.75801 11.2839C6.75801 10.1369 7.19201 9.05194 7.96701 8.21494C8.21501 7.93594 8.21501 7.50194 7.99801 7.22294C7.68801 6.85094 7.16101 6.85094 6.82001 7.19194C5.79701 8.27694 5.20801 9.73394 5.20801 11.2839Z" fill="black"/>
</svg>
