<svg width="28" height="28" viewBox="0 0 28 28" fill="none" xmlns="http://www.w3.org/2000/svg">
<path fill-rule="evenodd" clip-rule="evenodd" d="M14 0C21.7322 0 27.9414 6.26778 27.9414 14C27.9414 21.7322 21.7322 28 14 28C6.26778 28 0 21.7322 0 14C0 6.26778 6.26778 0 14 0Z" fill="#B90A0A"/>
<path fill-rule="evenodd" clip-rule="evenodd" d="M23.9574 4.15894C26.4762 6.67776 27.9992 10.1924 27.9992 13.9999C27.9992 21.7322 21.7314 27.9999 13.9992 27.9999C10.1917 27.9999 6.67703 26.4769 4.1582 23.8995L23.9574 4.15894Z" fill="#DB0D00"/>
<path d="M22.025 14.2342C22.025 15.8744 21.9665 17.2217 21.7321 18.3932C21.5564 19.5648 21.2049 20.5606 20.6192 21.4978C19.9748 22.6694 19.0962 23.548 18.0418 24.1924C16.9288 24.8367 15.7572 25.1296 14.41 25.1296C12.9455 25.1296 11.5397 24.7196 10.3681 23.8409C9.138 23.0208 8.25934 21.8493 7.67357 20.3848C7.3221 19.5648 7.14637 18.6861 6.97064 17.6903C6.85348 16.6945 6.73633 15.6401 6.73633 14.5271C6.73633 13.0041 6.85348 11.7154 6.97064 10.5438C7.14637 9.31371 7.38068 8.3179 7.73214 7.49781C8.31792 6.09196 9.19658 4.97899 10.3096 4.27606C11.4225 3.51455 12.7698 3.16309 14.2928 3.16309C15.3472 3.16309 16.2844 3.33882 17.1045 3.63171C17.9246 3.98317 18.6861 4.45179 19.3305 5.09614C19.9162 5.74049 20.4434 6.502 20.9121 7.43924C21.6736 9.02083 22.025 11.3053 22.025 14.2342ZM17.9246 13.9413C17.9246 12.184 17.866 10.7196 17.6317 9.6066C17.3974 8.43505 17.046 7.55639 16.5188 6.97062C15.9916 6.44342 15.2886 6.15053 14.3514 6.15053C13.0627 6.15053 12.1255 6.79489 11.5983 8.08359C11.1296 9.37229 10.8367 11.3639 10.8367 14.0585C10.8367 15.933 10.9539 17.3974 11.1882 18.5689C11.4225 19.7405 11.774 20.6777 12.3012 21.2635C12.8284 21.8493 13.5313 22.1422 14.41 22.1422C15.2886 22.1422 16.0501 21.8493 16.5188 21.2049C17.046 20.6192 17.3974 19.6819 17.6317 18.5104C17.866 17.3974 17.9246 15.8744 17.9246 13.9413Z" fill="#A70000"/>
<path d="M22 14.08C22 15.5733 21.8774 16.8 21.6935 17.8667C21.5096 18.9333 21.0805 19.8933 20.5287 20.7467C19.8544 21.76 18.9349 22.56 17.7701 23.1467C16.6667 23.7333 15.4406 24 14.0307 24C12.4368 24 11.0268 23.6267 9.80077 22.8267C8.51341 22.08 7.59387 21.0133 6.91954 19.68C6.61303 18.9333 6.36782 18.1333 6.24521 17.2267C6.0613 16.32 6 15.36 6 14.3467C6 13.0133 6.12261 11.7867 6.24521 10.72C6.42912 9.65333 6.67433 8.69333 7.04215 7.94667C7.65517 6.66667 8.57471 5.65333 9.73946 5.01333C10.9042 4.32 12.3142 4 13.908 4C15.0115 4 15.9923 4.16 16.8506 4.42667C17.7088 4.74667 18.5057 5.17333 19.1188 5.76C19.7931 6.34667 20.3448 7.04 20.8352 7.89333C21.6322 9.33333 22 11.4133 22 14.08ZM17.7088 13.8667C17.7088 12.2133 17.5862 10.88 17.4023 9.86667C17.1571 8.8 16.7893 8 16.2375 7.52C15.6858 6.98667 14.9502 6.72 13.9693 6.72C12.6207 6.72 11.6398 7.30667 11.0881 8.48C10.5977 9.65333 10.2912 11.4667 10.2912 13.92C10.2912 15.6267 10.4138 17.0133 10.659 18.0267C10.8429 19.1467 11.272 19.9467 11.8238 20.48C12.3755 21.0133 13.1111 21.28 14.0307 21.28C14.9502 21.28 15.6858 21.0133 16.2375 20.4267C16.7893 19.8933 17.1571 19.04 17.4023 18.0267C17.5862 16.96 17.7088 15.5733 17.7088 13.8667Z" fill="white"/>
</svg>
