<svg width="11" height="9" viewBox="0 0 11 9" fill="none" xmlns="http://www.w3.org/2000/svg">
<path d="M10.8901 0.841683L10.339 0.140338C10.2656 0.0466809 10.181 0 10.0854 0C9.98999 0 9.90544 0.0466809 9.83201 0.140338L5.50006 5.65375L1.1683 0.140485C1.09483 0.0468284 1.01028 0.000147333 0.914772 0.000147333C0.819222 0.000147333 0.734674 0.0468284 0.661245 0.140485L0.110259 0.841879C0.0366758 0.935339 0 1.04295 0 1.16457C0 1.28609 0.0367916 1.3937 0.110259 1.48716L5.24653 8.02475C5.31996 8.11826 5.40455 8.16499 5.50006 8.16499C5.59557 8.16499 5.68 8.11826 5.75339 8.02475L10.8901 1.48716C10.9635 1.39365 11 1.28604 11 1.16457C11 1.04295 10.9635 0.935339 10.8901 0.841683Z" fill="#FFAC60"/>
</svg>
