<svg width="28" height="25" viewBox="0 0 28 25" fill="none" xmlns="http://www.w3.org/2000/svg">
<g clip-path="url(#clip0_1426_116)">
<path d="M24.0909 1.8926C23.8309 1.67927 23.4903 1.56139 23.1372 1.56252H16.1372C16.0565 1.20793 15.8689 0.879739 15.5947 0.613302C15.3888 0.417297 15.1396 0.261583 14.8629 0.156018C14.5861 0.0504516 14.2878 -0.002668 13.9869 2.06475e-05C13.4785 -0.00748892 12.9834 0.144943 12.5882 0.430616C12.1931 0.716288 11.9231 1.11699 11.8256 1.56252H4.8125C4.4644 1.56252 4.13056 1.68599 3.88442 1.90576C3.63828 2.12552 3.5 2.4236 3.5 2.7344V23.8281C3.5 24.1389 3.63828 24.437 3.88442 24.6568C4.13056 24.8766 4.4644 25 4.8125 25H23.1875C23.3603 25.0016 23.5318 24.9723 23.6918 24.914C23.8519 24.8557 23.9973 24.7694 24.1195 24.6603C24.2417 24.5511 24.3383 24.4213 24.4037 24.2785C24.469 24.1356 24.5018 23.9825 24.5 23.8281V2.7344C24.5007 2.57646 24.4647 2.42011 24.3943 2.27522C24.3239 2.13033 24.2206 2.00005 24.0909 1.8926ZM12.2194 2.34377C12.3354 2.34377 12.4467 2.30262 12.5287 2.22936C12.6108 2.1561 12.6569 2.05675 12.6569 1.95315C12.6541 1.79725 12.6868 1.64248 12.7529 1.49817C12.819 1.35386 12.9172 1.223 13.0414 1.11349C13.1657 1.00397 13.3136 0.918077 13.4761 0.860979C13.6386 0.803882 13.8123 0.776767 13.9869 0.781271C14.169 0.776659 14.3502 0.806662 14.5184 0.869291C14.6866 0.93192 14.838 1.02575 14.9625 1.14455C15.1871 1.36619 15.3118 1.65425 15.3125 1.95315C15.3125 2.05675 15.3586 2.1561 15.4406 2.22936C15.5227 2.30262 15.634 2.34377 15.75 2.34377H18.375V4.68752H9.625V2.34377H12.2194ZM23.625 23.8281C23.625 23.9317 23.5789 24.0311 23.4969 24.1044C23.4148 24.1776 23.3035 24.2188 23.1875 24.2188H4.8125C4.69647 24.2188 4.58519 24.1776 4.50314 24.1044C4.42109 24.0311 4.375 23.9317 4.375 23.8281V2.7344C4.375 2.6308 4.42109 2.53144 4.50314 2.45818C4.58519 2.38493 4.69647 2.34377 4.8125 2.34377H8.75V5.07815C8.75 5.18175 8.79609 5.2811 8.87814 5.35436C8.96019 5.42762 9.07147 5.46877 9.1875 5.46877H18.8125C18.9285 5.46877 19.0398 5.42762 19.1219 5.35436C19.2039 5.2811 19.25 5.18175 19.25 5.07815V2.34377H23.1372C23.2686 2.34187 23.396 2.38443 23.4937 2.46291C23.5358 2.49734 23.5693 2.53933 23.5919 2.58612C23.6145 2.63291 23.6258 2.68344 23.625 2.7344V23.8281Z" fill="black"/>
<path d="M21.4375 3.90625H20.5625C20.4465 3.90625 20.3352 3.94741 20.2531 4.02066C20.1711 4.09392 20.125 4.19327 20.125 4.29688C20.125 4.40048 20.1711 4.49983 20.2531 4.57309C20.3352 4.64634 20.4465 4.6875 20.5625 4.6875H21V21.875H7V4.6875H7.4375C7.55353 4.6875 7.66481 4.64634 7.74686 4.57309C7.82891 4.49983 7.875 4.40048 7.875 4.29688C7.875 4.19327 7.82891 4.09392 7.74686 4.02066C7.66481 3.94741 7.55353 3.90625 7.4375 3.90625H6.5625C6.44647 3.90625 6.33519 3.94741 6.25314 4.02066C6.17109 4.09392 6.125 4.19327 6.125 4.29688V22.2656C6.125 22.3692 6.17109 22.4686 6.25314 22.5418C6.33519 22.6151 6.44647 22.6562 6.5625 22.6562H21.4375C21.5535 22.6562 21.6648 22.6151 21.7469 22.5418C21.8289 22.4686 21.875 22.3692 21.875 22.2656V4.29688C21.875 4.19327 21.8289 4.09392 21.7469 4.02066C21.6648 3.94741 21.5535 3.90625 21.4375 3.90625Z" fill="black"/>
<path d="M14.4375 9.375H19.25C19.366 9.375 19.4773 9.33385 19.5594 9.26059C19.6414 9.18733 19.6875 9.08798 19.6875 8.98438C19.6875 8.88077 19.6414 8.78142 19.5594 8.70816C19.4773 8.6349 19.366 8.59375 19.25 8.59375H14.4375C14.3215 8.59375 14.2102 8.6349 14.1281 8.70816C14.0461 8.78142 14 8.88077 14 8.98438C14 9.08798 14.0461 9.18733 14.1281 9.26059C14.2102 9.33385 14.3215 9.375 14.4375 9.375Z" fill="black"/>
<path d="M14.4375 11.7188H17.9375C18.0535 11.7188 18.1648 11.6776 18.2469 11.6043C18.3289 11.5311 18.375 11.4317 18.375 11.3281C18.375 11.2245 18.3289 11.1252 18.2469 11.0519C18.1648 10.9787 18.0535 10.9375 17.9375 10.9375H14.4375C14.3215 10.9375 14.2102 10.9787 14.1281 11.0519C14.0461 11.1252 14 11.2245 14 11.3281C14 11.4317 14.0461 11.5311 14.1281 11.6043C14.2102 11.6776 14.3215 11.7188 14.4375 11.7188Z" fill="black"/>
<path d="M10.0624 11.6797C10.1444 11.7523 10.2553 11.793 10.3708 11.7929H10.3905C10.4531 11.7921 10.5148 11.7793 10.5715 11.7554C10.6281 11.7315 10.6783 11.697 10.7186 11.6543L13.0221 9.17965C13.0621 9.1408 13.0928 9.09512 13.1125 9.04537C13.1321 8.99562 13.1403 8.94283 13.1365 8.89018C13.1327 8.83753 13.1169 8.78612 13.0903 8.73905C13.0636 8.69197 13.0265 8.65021 12.9813 8.61628C12.936 8.58235 12.8835 8.55696 12.827 8.54163C12.7705 8.5263 12.711 8.52136 12.6523 8.5271C12.5935 8.53284 12.5367 8.54914 12.4852 8.57503C12.4337 8.60091 12.3887 8.63584 12.3527 8.6777L10.3424 10.8261L9.05833 9.68161C8.97498 9.61441 8.86587 9.5784 8.7536 9.58105C8.64133 9.58369 8.5345 9.62478 8.45523 9.69581C8.37596 9.76684 8.33031 9.86237 8.32775 9.96262C8.32519 10.0629 8.3659 10.1602 8.44146 10.2343L10.0624 11.6797Z" fill="black"/>
<path d="M19.25 14.8438H14.4375C14.3215 14.8438 14.2102 14.8026 14.1281 14.7293C14.0461 14.6561 14 14.5567 14 14.4531C14 14.3495 14.0461 14.2502 14.1281 14.1769C14.2102 14.1037 14.3215 14.0625 14.4375 14.0625H19.25C19.366 14.0625 19.4773 14.1037 19.5594 14.1769C19.6414 14.2502 19.6875 14.3495 19.6875 14.4531C19.6875 14.5567 19.6414 14.6561 19.5594 14.7293C19.4773 14.8026 19.366 14.8438 19.25 14.8438Z" fill="black"/>
<path d="M17.9375 17.1875H14.4375C14.3215 17.1875 14.2102 17.1463 14.1281 17.0731C14.0461 16.9998 14 16.9005 14 16.7969C14 16.6933 14.0461 16.5939 14.1281 16.5207C14.2102 16.4474 14.3215 16.4062 14.4375 16.4062H17.9375C18.0535 16.4062 18.1648 16.4474 18.2469 16.5207C18.3289 16.5939 18.375 16.6933 18.375 16.7969C18.375 16.9005 18.3289 16.9998 18.2469 17.0731C18.1648 17.1463 18.0535 17.1875 17.9375 17.1875Z" fill="black"/>
<path d="M10.371 17.2617C10.2555 17.2618 10.1446 17.2211 10.0626 17.1484L8.44167 15.7012C8.39768 15.6657 8.36222 15.6226 8.33744 15.5746C8.31266 15.5265 8.29908 15.4744 8.29752 15.4215C8.29595 15.3686 8.30644 15.316 8.32835 15.2669C8.35026 15.2177 8.38312 15.173 8.42496 15.1355C8.46679 15.098 8.51672 15.0685 8.5717 15.0488C8.62669 15.0291 8.6856 15.0195 8.74485 15.0207C8.8041 15.0219 8.86246 15.0339 8.91638 15.0558C8.9703 15.0778 9.01867 15.1093 9.05854 15.1484L10.3426 16.293L12.3529 14.1445C12.4278 14.0653 12.5348 14.0158 12.6505 14.007C12.7662 13.9982 12.881 14.0308 12.9698 14.0977C13.0586 14.1645 13.114 14.26 13.1238 14.3633C13.1336 14.4666 13.0971 14.5692 13.0223 14.6484L10.7189 17.123C10.6797 17.1646 10.6312 17.1984 10.5766 17.2222C10.522 17.2461 10.4624 17.2596 10.4017 17.2617H10.371Z" fill="black"/>
</g>
<defs>
<clipPath id="clip0_1426_116">
<rect width="28" height="25" fill="white"/>
</clipPath>
</defs>
</svg>
