<svg width="52" height="46" viewBox="0 0 52 46" fill="none" xmlns="http://www.w3.org/2000/svg">
<g clip-path="url(#clip0_1462_76)">
<path d="M44.7403 3.48222C44.2574 3.08969 43.6249 2.8728 42.9691 2.87488H29.9691C29.8191 2.22244 29.4708 1.61856 28.9616 1.12831C28.5792 0.767665 28.1164 0.481152 27.6025 0.286911C27.0885 0.0926699 26.5345 -0.00507026 25.9756 -0.000123142V-0.000123142C25.0315 -0.0139407 24.112 0.266534 23.3782 0.792172C22.6443 1.31781 22.143 2.05509 21.9619 2.87488H8.9375C8.29103 2.87488 7.67105 3.10205 7.21393 3.50643C6.75681 3.9108 6.5 4.45925 6.5 5.03113V43.8436C6.5 44.4155 6.75681 44.9639 7.21393 45.3683C7.67105 45.7727 8.29103 45.9999 8.9375 45.9999H43.0625C43.3835 46.0028 43.7019 45.949 43.9991 45.8416C44.2963 45.7343 44.5663 45.5756 44.7933 45.3747C45.0203 45.1739 45.1998 44.9351 45.3211 44.6722C45.4424 44.4093 45.5033 44.1276 45.5 43.8436V5.03113C45.5013 4.74052 45.4344 4.45284 45.3037 4.18625C45.1729 3.91965 44.9811 3.67993 44.7403 3.48222V3.48222ZM22.6931 4.31238C22.9086 4.31238 23.1153 4.23665 23.2676 4.10186C23.42 3.96707 23.5056 3.78425 23.5056 3.59363C23.5006 3.30679 23.5612 3.02201 23.684 2.75647C23.8067 2.49094 23.989 2.25016 24.2198 2.04866C24.4507 1.84715 24.7252 1.6891 25.027 1.58404C25.3288 1.47898 25.6515 1.42909 25.9756 1.43738V1.43738C26.3139 1.42889 26.6504 1.4841 26.9628 1.59933C27.2751 1.71457 27.5563 1.88721 27.7875 2.10581C28.2046 2.51362 28.4362 3.04366 28.4375 3.59363C28.4375 3.78425 28.5231 3.96707 28.6755 4.10186C28.8279 4.23665 29.0345 4.31238 29.25 4.31238H34.125V8.62488H17.875V4.31238H22.6931ZM43.875 43.8436C43.875 44.0342 43.7894 44.2171 43.637 44.3519C43.4847 44.4866 43.278 44.5624 43.0625 44.5624H8.9375C8.72201 44.5624 8.51535 44.4866 8.36298 44.3519C8.2106 44.2171 8.125 44.0342 8.125 43.8436V5.03113C8.125 4.8405 8.2106 4.65769 8.36298 4.52289C8.51535 4.3881 8.72201 4.31238 8.9375 4.31238H16.25V9.34363C16.25 9.53425 16.3356 9.71707 16.488 9.85186C16.6403 9.98665 16.847 10.0624 17.0625 10.0624H34.9375C35.153 10.0624 35.3597 9.98665 35.512 9.85186C35.6644 9.71707 35.75 9.53425 35.75 9.34363V4.31238H42.9691C43.2132 4.30888 43.4497 4.38719 43.6313 4.5316C43.7094 4.59494 43.7715 4.6722 43.8135 4.75829C43.8555 4.84439 43.8765 4.93737 43.875 5.03113V43.8436Z" fill="#F27400"/>
<path d="M39.8125 7.1875H38.1875C37.972 7.1875 37.7653 7.26323 37.613 7.39802C37.4606 7.53281 37.375 7.71563 37.375 7.90625C37.375 8.09687 37.4606 8.27969 37.613 8.41448C37.7653 8.54927 37.972 8.625 38.1875 8.625H39V40.25H13V8.625H13.8125C14.028 8.625 14.2347 8.54927 14.387 8.41448C14.5394 8.27969 14.625 8.09687 14.625 7.90625C14.625 7.71563 14.5394 7.53281 14.387 7.39802C14.2347 7.26323 14.028 7.1875 13.8125 7.1875H12.1875C11.972 7.1875 11.7653 7.26323 11.613 7.39802C11.4606 7.53281 11.375 7.71563 11.375 7.90625V40.9688C11.375 41.1594 11.4606 41.3422 11.613 41.477C11.7653 41.6118 11.972 41.6875 12.1875 41.6875H39.8125C40.028 41.6875 40.2347 41.6118 40.387 41.477C40.5394 41.3422 40.625 41.1594 40.625 40.9688V7.90625C40.625 7.71563 40.5394 7.53281 40.387 7.39802C40.2347 7.26323 40.028 7.1875 39.8125 7.1875Z" fill="#F27400"/>
<path d="M26.8125 17.25H35.75C35.9655 17.25 36.1722 17.1743 36.3245 17.0395C36.4769 16.9047 36.5625 16.7219 36.5625 16.5312C36.5625 16.3406 36.4769 16.1578 36.3245 16.023C36.1722 15.8882 35.9655 15.8125 35.75 15.8125H26.8125C26.597 15.8125 26.3903 15.8882 26.238 16.023C26.0856 16.1578 26 16.3406 26 16.5312C26 16.7219 26.0856 16.9047 26.238 17.0395C26.3903 17.1743 26.597 17.25 26.8125 17.25Z" fill="#F27400"/>
<path d="M26.8125 21.5625H33.3125C33.528 21.5625 33.7347 21.4868 33.887 21.352C34.0394 21.2172 34.125 21.0344 34.125 20.8438C34.125 20.6531 34.0394 20.4703 33.887 20.3355C33.7347 20.2007 33.528 20.125 33.3125 20.125H26.8125C26.597 20.125 26.3903 20.2007 26.238 20.3355C26.0856 20.4703 26 20.6531 26 20.8438C26 21.0344 26.0856 21.2172 26.238 21.352C26.3903 21.4868 26.597 21.5625 26.8125 21.5625Z" fill="#F27400"/>
<path d="M18.6875 21.4906C18.8399 21.6243 19.0458 21.6992 19.2603 21.6991H19.2969C19.4132 21.6976 19.5278 21.6741 19.6329 21.63C19.738 21.586 19.8313 21.5226 19.9063 21.4439L24.1841 16.8906C24.2583 16.8191 24.3154 16.7351 24.3519 16.6436C24.3884 16.552 24.4036 16.4549 24.3965 16.358C24.3894 16.2611 24.3602 16.1665 24.3107 16.0799C24.2611 15.9933 24.1923 15.9165 24.1082 15.854C24.0242 15.7916 23.9268 15.7449 23.8218 15.7167C23.7168 15.6885 23.6064 15.6794 23.4973 15.6899C23.3882 15.7005 23.2827 15.7305 23.1871 15.7781C23.0915 15.8257 23.0077 15.89 22.941 15.967L19.2075 19.9202L16.8228 17.8142C16.668 17.6906 16.4654 17.6243 16.2569 17.6292C16.0484 17.6341 15.85 17.7097 15.7028 17.8404C15.5556 17.9711 15.4708 18.1468 15.466 18.3313C15.4613 18.5157 15.5369 18.6948 15.6772 18.8313L18.6875 21.4906Z" fill="#F27400"/>
<path d="M35.75 27.3125H26.8125C26.597 27.3125 26.3903 27.2368 26.238 27.102C26.0856 26.9672 26 26.7844 26 26.5938C26 26.4031 26.0856 26.2203 26.238 26.0855C26.3903 25.9507 26.597 25.875 26.8125 25.875H35.75C35.9655 25.875 36.1722 25.9507 36.3245 26.0855C36.4769 26.2203 36.5625 26.4031 36.5625 26.5938C36.5625 26.7844 36.4769 26.9672 36.3245 27.102C36.1722 27.2368 35.9655 27.3125 35.75 27.3125Z" fill="#F27400"/>
<path d="M33.3125 31.625H26.8125C26.597 31.625 26.3903 31.5493 26.238 31.4145C26.0856 31.2797 26 31.0969 26 30.9062C26 30.7156 26.0856 30.5328 26.238 30.398C26.3903 30.2632 26.597 30.1875 26.8125 30.1875H33.3125C33.528 30.1875 33.7347 30.2632 33.887 30.398C34.0394 30.5328 34.125 30.7156 34.125 30.9062C34.125 31.0969 34.0394 31.2797 33.887 31.4145C33.7347 31.5493 33.528 31.625 33.3125 31.625Z" fill="#F27400"/>
<path d="M19.2603 31.7616C19.0457 31.7618 18.8398 31.6868 18.6875 31.5532L15.6772 28.8902C15.5955 28.825 15.5296 28.7457 15.4836 28.6573C15.4376 28.5688 15.4124 28.473 15.4095 28.3757C15.4066 28.2784 15.426 28.1815 15.4667 28.0911C15.5074 28.0006 15.5685 27.9184 15.6461 27.8494C15.7238 27.7804 15.8165 27.7262 15.9187 27.6898C16.0208 27.6535 16.1302 27.636 16.2402 27.6382C16.3503 27.6404 16.4586 27.6624 16.5588 27.7028C16.6589 27.7432 16.7487 27.8011 16.8228 27.8732L19.2075 29.9791L22.9409 26.026C23.0799 25.8802 23.2787 25.7892 23.4935 25.773C23.7084 25.7568 23.9217 25.8168 24.0865 25.9397C24.2514 26.0627 24.3543 26.2385 24.3726 26.4286C24.3908 26.6187 24.323 26.8074 24.184 26.9532L19.9062 31.5065C19.8335 31.5829 19.7435 31.645 19.6421 31.689C19.5407 31.7329 19.43 31.7576 19.3172 31.7616H19.2603Z" fill="#F27400"/>
</g>
<defs>
<clipPath id="clip0_1462_76">
<rect width="52" height="46" fill="white"/>
</clipPath>
</defs>
</svg>
