<svg width="69" height="71" viewBox="0 0 69 71" fill="none" xmlns="http://www.w3.org/2000/svg">
<path d="M11.5 53.25H27.3125V56.948C27.3125 59.1056 26.4795 61.1749 24.9968 62.7006C23.5141 64.2263 21.5031 65.0834 19.4062 65.0834C17.3094 65.0834 15.2984 64.2263 13.8157 62.7006C12.333 61.1749 11.5 59.1056 11.5 56.948V53.25ZM23 18.105C28.75 18.105 31.625 26.6251 31.625 32.5417C31.625 35.5001 30.1875 38.4584 28.75 42.8959L27.3125 47.3334H11.5C11.5 44.3751 10.0625 39.9376 10.0625 32.5417C10.0625 25.1459 15.8067 18.105 23 18.105ZM57.6553 41.7066L57.0314 45.3483C56.6673 47.4734 55.4977 49.3626 53.7799 50.6004C52.0621 51.8381 49.9368 52.323 47.8716 51.9484C45.8064 51.5737 43.9704 50.3702 42.7675 48.6027C41.5646 46.8351 41.0934 44.6482 41.4575 42.5231L42.0842 38.8844L57.6553 41.7066ZM52.2617 5.04401C59.3457 6.32792 63.8135 14.2858 62.5657 21.5693C61.318 28.8556 59.1531 32.9677 58.6558 35.8817L43.0819 33.0565L42.4149 28.4296C41.7479 23.8028 40.8336 20.6315 41.331 17.7205C42.3286 11.8925 46.598 4.01747 52.2617 5.04401V5.04401Z" fill="#F27400"/>
</svg>
