<svg width="64" height="64" viewBox="0 0 64 64" fill="none" xmlns="http://www.w3.org/2000/svg">
<g clip-path="url(#clip0_1595_34)">
<path d="M32 62C48.5685 62 62 48.5685 62 32C62 15.4315 48.5685 2 32 2C15.4315 2 2 15.4315 2 32C2 48.5685 15.4315 62 32 62Z" fill="white"/>
<path d="M32 64C25.671 64 19.4841 62.1232 14.2218 58.607C8.95939 55.0908 4.85787 50.0931 2.43587 44.2459C0.013865 38.3986 -0.619842 31.9645 0.614885 25.7571C1.84961 19.5497 4.89732 13.8479 9.3726 9.3726C13.8479 4.89732 19.5497 1.84961 25.7571 0.614885C31.9645 -0.619842 38.3986 0.013865 44.2459 2.43587C50.0931 4.85787 55.0908 8.95939 58.607 14.2218C62.1232 19.4841 64 25.671 64 32C64 40.4869 60.6286 48.6263 54.6274 54.6274C48.6263 60.6286 40.4869 64 32 64V64ZM32 4.00001C26.4621 4.00001 21.0486 5.64219 16.444 8.71887C11.8395 11.7955 8.25064 16.1685 6.13139 21.2849C4.01213 26.4012 3.45764 32.0311 4.53803 37.4625C5.61841 42.894 8.28515 47.8831 12.201 51.799C16.1169 55.7149 21.106 58.3816 26.5375 59.462C31.969 60.5424 37.5988 59.9879 42.7152 57.8686C47.8315 55.7494 52.2045 52.1606 55.2812 47.556C58.3578 42.9514 60 37.5379 60 32C60 24.574 57.05 17.452 51.799 12.201C46.548 6.95001 39.4261 4.00001 32 4.00001V4.00001Z" fill="#1ABB17"/>
<path d="M21.0005 29L26.5905 34.59C26.9652 34.9625 27.4721 35.1716 28.0005 35.1716C28.5288 35.1716 29.0357 34.9625 29.4105 34.59L43.0005 21C43.7961 20.2044 44.8752 19.7574 46.0005 19.7574C47.1257 19.7574 48.2048 20.2044 49.0005 21C49.7961 21.7957 50.2431 22.8748 50.2431 24C50.2431 25.1252 49.7961 26.2044 49.0005 27L32.2405 43.76C31.1155 44.8836 29.5905 45.5147 28.0005 45.5147C26.4104 45.5147 24.8855 44.8836 23.7605 43.76L15.0005 35C14.2048 34.2044 13.7578 33.1252 13.7578 32C13.7578 31.4429 13.8676 30.8912 14.0808 30.3764C14.294 29.8617 14.6065 29.394 15.0005 29C15.3944 28.6061 15.8621 28.2936 16.3769 28.0803C16.8916 27.8671 17.4433 27.7574 18.0005 27.7574C19.1257 27.7574 20.2048 28.2044 21.0005 29V29Z" fill="#8CFF70"/>
<path d="M22.34 45.17L13.59 36.41C12.7182 35.5373 12.1247 34.4259 11.8843 33.2161C11.6439 32.0062 11.7675 30.7523 12.2394 29.6127C12.7113 28.4731 13.5104 27.4988 14.5357 26.8131C15.561 26.1274 16.7665 25.7609 18 25.76C18.8197 25.7568 19.632 25.9169 20.3892 26.2311C21.1463 26.5453 21.8333 27.0073 22.41 27.59L28 33.17L41.59 19.59C42.772 18.4826 44.3383 17.8783 45.9578 17.9047C47.5773 17.9311 49.1231 18.5862 50.2684 19.7315C51.4137 20.8768 52.0688 22.4226 52.0953 24.0421C52.1217 25.6616 51.5173 27.2279 50.41 28.41L33.66 45.17C32.917 45.9138 32.0347 46.5039 31.0635 46.9065C30.0923 47.3091 29.0513 47.5163 28 47.5163C26.9486 47.5163 25.9076 47.3091 24.9364 46.9065C23.9653 46.5039 23.0829 45.9138 22.34 45.17V45.17ZM18 29.76C17.5573 29.7623 17.1251 29.8952 16.7576 30.142C16.3901 30.3887 16.1035 30.7384 15.9338 31.1473C15.7641 31.5561 15.7187 32.006 15.8034 32.4405C15.8881 32.875 16.0991 33.2748 16.41 33.59L25.17 42.34C25.5415 42.7119 25.9826 43.0069 26.4682 43.2082C26.9538 43.4095 27.4743 43.5131 28 43.5131C28.5256 43.5131 29.0461 43.4095 29.5317 43.2082C30.0173 43.0069 30.4585 42.7119 30.83 42.34L47.59 25.59C47.811 25.384 47.9883 25.1356 48.1113 24.8596C48.2343 24.5836 48.3004 24.2857 48.3057 23.9836C48.3111 23.6815 48.2555 23.3814 48.1423 23.1012C48.0292 22.821 47.8607 22.5665 47.6471 22.3529C47.4334 22.1392 47.1789 21.9708 46.8988 21.8576C46.6186 21.7445 46.3185 21.6889 46.0164 21.6942C45.7143 21.6996 45.4163 21.7657 45.1403 21.8887C44.8643 22.0116 44.6159 22.1889 44.41 22.41L30.83 36C30.0674 36.7275 29.0539 37.1333 28 37.1333C26.946 37.1333 25.9326 36.7275 25.17 36C19.14 30 19.25 29.76 18 29.76Z" fill="#1ABB17"/>
</g>
<defs>
<clipPath id="clip0_1595_34">
<rect width="64" height="64" fill="white"/>
</clipPath>
</defs>
</svg>
