<svg width="41" height="39" viewBox="0 0 41 39" fill="none" xmlns="http://www.w3.org/2000/svg">
<path d="M20.5 39C16.4455 39 12.482 37.8563 9.11082 35.7137C5.73961 33.571 3.11207 30.5255 1.56048 26.9623C0.00888233 23.3992 -0.397086 19.4784 0.393911 15.6957C1.18491 11.9131 3.13734 8.43855 6.00432 5.71143C8.87129 2.9843 12.524 1.12711 16.5007 0.374696C20.4773 -0.377716 24.5991 0.00844905 28.345 1.48436C32.0909 2.96027 35.2926 5.45963 37.5451 8.66639C39.7977 11.8731 41 15.6433 41 19.5C41 24.6717 38.8402 29.6316 34.9957 33.2886C31.1512 36.9455 25.9369 39 20.5 39ZM20.5 3.00001C17.0693 3.00001 13.7156 3.96772 10.863 5.78076C8.01044 7.5938 5.78714 10.1707 4.47425 13.1857C3.16136 16.2007 2.81785 19.5183 3.48716 22.719C4.15646 25.9197 5.80852 28.8597 8.23442 31.1673C10.6603 33.4748 13.7511 35.0463 17.1159 35.683C20.4808 36.3196 23.9685 35.9929 27.1381 34.744C30.3077 33.4952 33.0168 31.3803 34.9228 28.6669C36.8288 25.9535 37.8462 22.7634 37.8462 19.5C37.8462 15.1239 36.0186 10.9271 32.7656 7.83275C29.5126 4.7384 25.1005 3.00001 20.5 3.00001Z" fill="black"/>
<path d="M29.1739 29.25C28.9663 29.2511 28.7606 29.2133 28.5685 29.1387C28.3763 29.064 28.2016 28.954 28.0542 28.815L19.3812 20.565C19.235 20.4248 19.1194 20.2586 19.0409 20.0759C18.9624 19.8931 18.9227 19.6974 18.9239 19.5V7.5C18.9239 7.10217 19.09 6.72064 19.3857 6.43934C19.6815 6.15804 20.0826 6 20.5008 6C20.919 6 21.3201 6.15804 21.6158 6.43934C21.9116 6.72064 22.0777 7.10217 22.0777 7.5V18.885L30.2935 26.685C30.4413 26.8244 30.5586 26.9903 30.6386 27.1731C30.7187 27.3559 30.7599 27.552 30.7599 27.75C30.7599 27.948 30.7187 28.1441 30.6386 28.3269C30.5586 28.5096 30.4413 28.6755 30.2935 28.815C30.1461 28.954 29.9714 29.064 29.7792 29.1387C29.5871 29.2133 29.3814 29.2511 29.1739 29.25Z" fill="black"/>
</svg>
