<svg width="48" height="48" viewBox="0 0 48 48" fill="none" xmlns="http://www.w3.org/2000/svg">
<path fill-rule="evenodd" clip-rule="evenodd" d="M23 6.77491V41.2252L34 37.5585V10.4416L23 6.77491ZM22.3162 4.4388C21.6687 4.22296 21 4.70493 21 5.38748V42.6126C21 43.2952 21.6687 43.7772 22.3162 43.5613L35.3162 39.228C35.7246 39.0919 36 38.7097 36 38.2793V9.72082C36 9.29039 35.7246 8.90825 35.3162 8.77214L22.3162 4.4388Z" fill="white"/>
<path d="M27 23C27 24.1045 26.5523 25 26 25C25.4477 25 25 24.1045 25 23C25 21.8954 25.4477 21 26 21C26.5523 21 27 21.8954 27 23Z" fill="white"/>
<path fill-rule="evenodd" clip-rule="evenodd" d="M21 8H12V39H21V37H14V10H21V8Z" fill="white"/>
</svg>
