<?xml version="1.0" ?><svg fill="none" height="70" viewBox="0 0 24 24" width="70" xmlns="http://www.w3.org/2000/svg"><path clip-rule="evenodd" d="M20 5H4C3.44772 5 3 5.44772 3 6V18C3 18.5523 3.44772 19 4 19H20C20.5523 19 21 18.5523 21 18V6C21 5.44772 20.5523 5 20 5ZM4 4C2.89543 4 2 4.89543 2 6V18C2 19.1046 2.89543 20 4 20H20C21.1046 20 22 19.1046 22 18V6C22 4.89543 21.1046 4 20 4H4Z" fill="black" fill-rule="evenodd"/><path clip-rule="evenodd" d="M16.8542 9.56127C16.6588 9.36589 16.342 9.36603 16.1468 9.56158L11.1833 14.5336C10.5942 15.1238 9.63679 15.1202 9.05214 14.5255L8.1123 13.5697C7.91754 13.3716 7.59864 13.3702 7.40221 13.5667L2.85356 18.1153C2.6583 18.3106 2.34172 18.3106 2.14646 18.1153C1.95119 17.9201 1.95119 17.6035 2.14646 17.4082L6.69511 12.8596C7.2844 12.2703 8.24107 12.2743 8.82536 12.8686L9.76521 13.8244C9.96009 14.0227 10.2792 14.0239 10.4756 13.8271L15.439 8.85508C16.0247 8.26843 16.9751 8.26802 17.5613 8.85417L21.8536 13.1464C22.0488 13.3417 22.0488 13.6583 21.8536 13.8536C21.6583 14.0488 21.3417 14.0488 21.1465 13.8536L16.8542 9.56127Z" fill="black" fill-rule="evenodd"/><path clip-rule="evenodd" d="M6.21053 9C6.79188 9 7.26316 8.55228 7.26316 8C7.26316 7.44772 6.79188 7 6.21053 7C5.62917 7 5.15789 7.44772 5.15789 8C5.15789 8.55228 5.62917 9 6.21053 9Z" fill="black" fill-rule="evenodd"/></svg>