<svg width="77" height="86" viewBox="0 0 77 86" fill="none" xmlns="http://www.w3.org/2000/svg">
<path d="M74.6025 12.0584C74.6025 12.0584 59.8125 9.60589 55.6075 8.24339C49.6646 6.69701 44.1075 4.05722 39.2588 0.477141C38.9364 0.184715 38.5103 0.0148304 38.0625 0.000266006C37.5778 -0.00770068 37.1091 0.163554 36.7575 0.477141C31.9556 4.08634 26.4156 6.72977 20.4812 8.24339C16.3125 9.60589 1.8125 12.0584 1.5225 12.0584C1.09979 12.1228 0.714987 12.3257 0.436301 12.6312C0.157616 12.9367 0.00304945 13.3251 0 13.7275C0 41.3181 0.3625 54.0575 9.3525 67.0353C17.0375 78.1396 36.54 84.884 37.3738 85.1906C37.5775 85.2258 37.7863 85.2258 37.99 85.1906H38.6062C39.44 84.884 59.0875 78.1396 66.7725 67.0353C75.7625 54.0575 76.125 41.3181 76.125 13.7275C76.1219 13.3251 75.9674 12.9367 75.6887 12.6312C75.41 12.3257 75.0252 12.1228 74.6025 12.0584ZM63.7275 65.1959C57.42 74.2906 41.325 80.524 37.99 81.7503C34.655 80.524 18.705 74.2906 12.3975 65.1959C4.4225 53.6828 3.66125 43.3959 3.625 15.1581C9.7267 14.3256 15.7769 13.1886 21.75 11.7518C27.5948 9.96887 33.101 7.32443 38.0625 3.91745C43.0794 7.23324 48.6211 9.78519 54.4838 11.4793C60.4569 12.9157 66.5071 14.0527 72.6087 14.8856C72.4638 43.2596 71.7025 53.5465 63.7275 65.0596V65.1959Z" fill="#FFBA57"/>
<path d="M21.098 44.3157C20.9208 44.1676 20.7139 44.0544 20.4895 43.9827C20.265 43.911 20.0275 43.8822 19.791 43.8981C19.5545 43.9139 19.3238 43.9741 19.1125 44.0751C18.9012 44.1761 18.7135 44.3158 18.5605 44.486C18.2536 44.836 18.1046 45.2849 18.1452 45.7368C18.1859 46.1887 18.413 46.6078 18.778 46.9044L36.903 61.4491C37.2214 61.7173 37.6354 61.8632 38.063 61.8579H38.3167C38.5722 61.8231 38.817 61.7385 39.0356 61.6094C39.2541 61.4803 39.4414 61.3097 39.5855 61.1085L60.683 32.0191C60.957 31.6442 61.0613 31.1824 60.9729 30.7352C60.8845 30.2881 60.6107 29.8922 60.2118 29.6347C59.8128 29.3773 59.3213 29.2793 58.8454 29.3623C58.3695 29.4454 57.9482 29.7026 57.6743 30.0776L37.7005 57.6341L21.098 44.3157Z" fill="#FFBA57"/>
</svg>
