<svg width="14" height="9" viewBox="0 0 14 9" fill="none" xmlns="http://www.w3.org/2000/svg">
<path d="M13.2658 1.42637L12.5994 0.715691C12.5106 0.620788 12.4083 0.573486 12.2926 0.573486C12.1773 0.573486 12.075 0.620788 11.9862 0.715691L6.7473 6.30247L1.50861 0.715841C1.41976 0.620938 1.31751 0.573636 1.202 0.573636C1.08644 0.573636 0.984195 0.620938 0.895392 0.715841L0.229047 1.42657C0.140058 1.52127 0.0957031 1.63032 0.0957031 1.75355C0.0957031 1.87669 0.140198 1.98573 0.229047 2.08043L6.44069 8.70502C6.52949 8.79978 6.63179 8.84713 6.7473 8.84713C6.86281 8.84713 6.96492 8.79978 7.05367 8.70502L13.2658 2.08043C13.3546 1.98568 13.3988 1.87664 13.3988 1.75355C13.3988 1.63032 13.3546 1.52127 13.2658 1.42637Z" fill="black"/>
</svg>
