<svg width="138" height="135" viewBox="0 0 138 135" fill="none" xmlns="http://www.w3.org/2000/svg">
<path d="M71.875 95.625L69 101.25L66.125 95.625L63.25 73.125H74.75L71.875 95.625Z" fill="#FFA000"/>
<path d="M83.375 123.75C83.375 126.858 80.799 129.375 77.625 129.375H60.375C57.201 129.375 54.625 126.858 54.625 123.75V104.062C54.625 100.955 66.125 95.625 66.125 95.625H71.875C71.875 95.625 83.375 100.955 83.375 104.062V123.75Z" fill="#FBC02D"/>
<path d="M71.875 95.625V98.4375H66.125V95.625L63.25 73.125H74.75L71.875 95.625Z" fill="#E5A24A"/>
<path d="M56.6667 70.2309C55.212 69.8681 20.965 61.1297 15.2955 34.3209C12.7741 22.3819 15.8964 15.4912 18.964 11.8097C22.7561 7.25062 27.9254 5.625 31.4961 5.625C36.2715 5.625 39.963 6.91031 42.4729 9.44719C45.6296 12.645 45.5836 16.5347 45.5721 16.9734C45.5721 21.3947 42.5102 28.125 34.0721 28.125C33.7185 28.125 31.8986 28.0744 30.0069 27.0984C27.2555 25.6866 25.7461 23.0484 25.7461 19.6875H31.4961C31.4961 21.3019 32.1372 21.8363 32.6892 22.1259C33.3447 22.4606 34.0692 22.5 34.075 22.5C39.5461 22.5 39.825 17.8116 39.825 16.875C39.825 16.7372 39.8192 14.8162 38.2869 13.3059C36.8982 11.9419 34.6126 11.25 31.4961 11.25C29.7654 11.25 26.1227 12.1191 23.4202 15.3591C20.1542 19.2853 19.2917 25.4447 20.9276 33.1791C25.8726 56.5734 57.7506 64.6931 58.0726 64.7691L56.6667 70.2309Z" fill="#E5A24A"/>
<path d="M80.7592 70.3124L79.0371 64.9461C79.3246 64.8646 107.991 55.7718 116.145 32.9483C118.643 25.9733 118.471 20.458 115.627 16.5458C112.882 12.7546 108.227 11.3821 105.772 11.3821C97.2445 11.3821 97.1467 16.7765 97.1467 17.0071C97.1697 18.3036 97.647 22.6321 102.897 22.6321C104.19 22.5983 105.772 22.0836 105.772 19.8196H111.522C111.522 26.0043 106.364 28.2571 102.897 28.2571C94.4557 28.2571 91.3967 21.5211 91.3967 17.0071C91.3967 13.1174 94.4011 5.75708 105.772 5.75708C110.145 5.75708 116.564 8.10833 120.322 13.2833C123.056 17.0521 125.494 23.8527 121.581 34.8046C112.456 60.3252 82.0501 69.9158 80.7592 70.3124Z" fill="#E5A24A"/>
<path d="M83.375 109.688H54.625V104.062C54.625 100.958 66.125 95.625 66.125 95.625H71.875C71.875 95.625 83.375 100.958 83.375 104.062V109.688Z" fill="#FFBA57"/>
<path d="M97.75 8.4375C97.75 30.9375 91.7585 78.75 69 78.75C46.2415 78.75 40.25 30.9375 40.25 8.4375H97.75Z" fill="#FFBA57"/>
<path d="M71.875 53.4375H66.125V32.6503L60.375 34.5234V29.5734L71.3374 25.3125H71.875V53.4375Z" fill="#FFECB3"/>
<path d="M89.125 106.875H48.875V129.375H89.125V106.875Z" fill="#7A534B"/>
<path d="M83.375 115.312H54.625V120.938H83.375V115.312Z" fill="#FFE082"/>
</svg>
