<svg width="56" height="53" viewBox="0 0 56 53" fill="none" xmlns="http://www.w3.org/2000/svg">
<g clip-path="url(#clip0_904_34)">
<path d="M55.5343 6.19262C55.1592 5.90229 54.6626 5.91707 54.3004 6.22986C53.825 6.64198 53.051 6.96898 52.218 7.22086C54.3873 4.44295 54.4339 2.58808 54.4106 2.16116C54.3863 1.72064 54.154 1.3298 53.8042 1.14176C53.4535 0.952548 53.0427 0.998656 52.7302 1.25765C50.2903 3.2846 47.8596 3.71271 46.4141 3.75588C44.1956 1.32983 41.3139 0 38.2479 0C31.683 0 26.3422 6.18551 26.3422 13.7884C26.3422 14.4417 26.382 15.0951 26.4617 15.7414C15.0842 15.5942 5.84494 3.13505 5.74974 3.00496C5.52779 2.70161 5.18994 2.53961 4.84486 2.57449C4.49978 2.60879 4.19089 2.83288 4.0181 3.17583C0.743663 9.66765 2.93474 15.3695 4.93747 18.634C4.58307 18.4182 4.29592 18.2053 4.12467 18.061C3.80648 17.7902 3.38172 17.7453 3.02422 17.9457C2.66722 18.1468 2.43907 18.5583 2.43234 19.013C2.34386 25.1985 4.94936 28.7421 7.39858 30.7011C7.07212 30.6656 6.74047 30.8046 6.51388 31.086C6.25935 31.4024 6.16984 31.8488 6.2795 32.2598C7.9713 38.5896 12.1263 40.7401 14.7701 41.4698C9.33405 46.3059 1.33496 44.7497 1.24651 44.7319C0.763795 44.6344 0.28627 44.9247 0.0896659 45.4367C-0.106939 45.9482 0.0275747 46.5478 0.416651 46.8866C6.15431 51.8913 13.0167 53 17.9742 53C21.7236 52.9994 24.3844 52.3649 24.639 52.3017C49.7485 45.5012 50.4553 19.2147 50.3979 14.9065C55.1116 9.89649 55.8484 7.98837 55.9622 7.51652C56.0822 7.01569 55.9105 6.48353 55.5343 6.19262Z" fill="white"/>
<path d="M48.6066 13.5009C48.3707 13.7493 48.246 14.107 48.2672 14.473C48.334 15.6361 49.6181 43.0479 24.1701 49.94C24.0548 49.9678 13.9391 52.3802 5.16965 47.4152C8.87454 47.2975 14.1874 46.1882 17.8887 41.439C18.1681 41.0812 18.2359 40.5686 18.062 40.1322C17.8903 39.7 17.5126 39.4226 17.0977 39.4226C17.094 39.4226 17.0904 39.4226 17.0868 39.4226C17.034 39.4611 11.4697 39.4156 8.92268 33.366C9.94861 33.4322 11.2136 33.3601 12.2209 32.8297C12.6359 32.6109 12.8811 32.113 12.8299 31.5939C12.7786 31.0753 12.4424 30.6526 11.9953 30.545C11.7103 30.4764 5.51629 28.8935 4.64969 21.1706C5.58975 21.6401 6.7916 22.0244 7.98156 21.8169C8.39029 21.7465 8.72501 21.4107 8.8404 20.9572C8.95579 20.5037 8.82954 20.0141 8.51755 19.7042C8.25265 19.4405 2.43534 13.5317 5.19344 5.91171C8.18746 9.50205 17.0568 18.8332 27.8016 18.1278C28.1166 18.1071 28.4074 17.9262 28.5947 17.6353C28.7815 17.3444 28.8451 16.9736 28.768 16.6236C28.5647 15.6976 28.4612 14.7433 28.4612 13.7883C28.4612 7.5206 32.8516 2.42188 38.2478 2.42188C40.8874 2.42188 43.3636 3.62576 45.2189 5.81235C45.4139 6.04237 45.6814 6.17482 45.9613 6.18012C47.084 6.19786 48.9305 6.04706 51.0155 5.09155C50.4138 5.94716 49.5301 6.97363 48.23 8.14025C47.8627 8.47018 47.7276 9.03664 47.8978 9.53393C48.0686 10.0324 48.5088 10.3469 48.9693 10.2997C49.2161 10.2772 50.4754 10.1501 51.8981 9.79825C51.1231 10.7538 50.0604 11.9725 48.6066 13.5009Z" fill="white"/>
</g>
<defs>
<clipPath id="clip0_904_34">
<rect width="56" height="53" fill="white"/>
</clipPath>
</defs>
</svg>
