<svg width="57" height="58" viewBox="0 0 57 58" fill="none" xmlns="http://www.w3.org/2000/svg">
<path d="M28.4629 30.1182C17.1257 30.1399 7.74709 39.2733 7.1807 50.8156C7.16563 51.1431 7.21621 51.4704 7.32938 51.7774C7.44255 52.0844 7.61593 52.3648 7.83898 52.6015C8.06202 52.8382 8.33007 53.0262 8.6268 53.1541C8.92352 53.282 9.24273 53.3471 9.56498 53.3455H47.4537C47.7743 53.3446 48.0915 53.2776 48.3861 53.1485C48.6806 53.0195 48.9464 52.8311 49.1675 52.5947C49.3886 52.3583 49.5603 52.0787 49.6723 51.773C49.7844 51.4672 49.8344 51.1416 49.8194 50.8156C49.2523 39.2587 39.8516 30.1194 28.5 30.1182H28.4629Z" fill="#F27400"/>
<path d="M28.5008 4.65454C22.4911 4.65454 17.5916 9.66346 17.5916 15.7854C17.5915 21.9074 22.4911 26.9336 28.5008 26.9336C34.5106 26.9336 39.4271 21.9074 39.4271 15.7854C39.427 9.66346 34.5106 4.65454 28.5008 4.65454V4.65454Z" fill="#F27400"/>
</svg>
